<?xml version="1.0" encoding="utf-8" standalone="no"?>
<!DOCTYPE svg PUBLIC "-//W3C//DTD SVG 1.1//EN"
  "http://www.w3.org/Graphics/SVG/1.1/DTD/svg11.dtd">
<svg xmlns:xlink="http://www.w3.org/1999/xlink" width="410.4pt" height="158.4pt" viewBox="0 0 410.4 158.4" xmlns="http://www.w3.org/2000/svg" version="1.1">
 <metadata>
  <rdf:RDF xmlns:dc="http://purl.org/dc/elements/1.1/" xmlns:cc="http://creativecommons.org/ns#" xmlns:rdf="http://www.w3.org/1999/02/22-rdf-syntax-ns#">
   <cc:Work>
    <dc:type rdf:resource="http://purl.org/dc/dcmitype/StillImage"/>
    <dc:date>2023-03-20T21:29:43.363280</dc:date>
    <dc:format>image/svg+xml</dc:format>
    <dc:creator>
     <cc:Agent>
      <dc:title>Matplotlib v3.7.0, https://matplotlib.org/</dc:title>
     </cc:Agent>
    </dc:creator>
   </cc:Work>
  </rdf:RDF>
 </metadata>
 <defs>
  <style type="text/css">*{stroke-linejoin: round; stroke-linecap: butt}</style>
 </defs>
 <g id="figure_1">
  <g id="patch_1">
   <path d="M 0 158.4
L 410.4 158.4
L 410.4 0
L 0 0
L 0 158.4
z
" style="fill: none"/>
  </g>
  <g id="axes_1">
   <g id="PolyCollection_1">
    <defs>
     <path id="m53c1ac76d0" d="M 18.654545 -7.2
L 18.654545 -11.192292
L 19.062365 -11.274561
L 19.470185 -11.358436
L 19.878021 -11.44395
L 20.285841 -11.531129
L 20.69366 -11.620005
L 21.101496 -11.710611
L 21.509316 -11.802974
L 21.917136 -11.897123
L 22.324956 -11.993097
L 22.732775 -12.090923
L 23.140595 -12.190635
L 23.548431 -12.292265
L 23.956267 -12.395851
L 24.364087 -12.501423
L 24.771907 -12.609019
L 25.179726 -12.718667
L 25.587546 -12.830412
L 25.995366 -12.944288
L 26.403202 -13.06033
L 26.811038 -13.178576
L 27.218858 -13.299059
L 27.626677 -13.421824
L 28.034497 -13.546911
L 28.442317 -13.67435
L 28.850137 -13.804194
L 29.257973 -13.936476
L 29.665792 -14.071237
L 30.073612 -14.208516
L 30.481448 -14.348366
L 30.889268 -14.490819
L 31.297088 -14.635927
L 31.704907 -14.783729
L 32.112727 -14.934262
L 32.520563 -15.087588
L 32.928383 -15.24374
L 33.336203 -15.402764
L 33.744038 -15.564718
L 34.151858 -15.729642
L 34.559678 -15.897582
L 34.967498 -16.068592
L 35.375317 -16.242712
L 35.783137 -16.420002
L 36.190973 -16.600513
L 36.598809 -16.784289
L 37.006629 -16.971378
L 37.414449 -17.161847
L 37.822268 -17.355735
L 38.230088 -17.553096
L 38.637908 -17.753997
L 39.045744 -17.958484
L 39.453564 -18.166609
L 39.8614 -18.378433
L 40.269219 -18.594001
L 40.677039 -18.813384
L 41.084859 -19.03664
L 41.492679 -19.26382
L 41.900515 -19.494978
L 42.308334 -19.73018
L 42.716154 -19.969486
L 43.12399 -20.212956
L 43.53181 -20.460642
L 43.93963 -20.712623
L 44.347449 -20.96895
L 44.755269 -21.229681
L 45.163105 -21.494882
L 45.570925 -21.764619
L 45.978745 -22.038956
L 46.386581 -22.317962
L 46.7944 -22.601686
L 47.20222 -22.890207
L 47.61004 -23.183589
L 48.01786 -23.481898
L 48.425679 -23.785189
L 48.833515 -24.093548
L 49.241351 -24.407037
L 49.649171 -24.72571
L 50.056991 -25.049645
L 50.46481 -25.378912
L 50.87263 -25.713578
L 51.28045 -26.053716
L 51.688286 -26.399386
L 52.096106 -26.750665
L 52.503942 -27.107624
L 52.911761 -27.470325
L 53.319581 -27.838842
L 53.727401 -28.213247
L 54.135221 -28.593619
L 54.54304 -28.98001
L 54.950876 -29.3725
L 55.358696 -29.771168
L 55.766516 -30.176061
L 56.174352 -30.587281
L 56.582172 -31.004875
L 56.989991 -31.42893
L 57.397811 -31.859502
L 57.805647 -32.296662
L 58.213467 -32.740491
L 58.621287 -33.191051
L 59.029123 -33.648428
L 59.436942 -34.112673
L 59.844762 -34.583844
L 60.252582 -35.062025
L 60.660402 -35.547299
L 61.068221 -36.039703
L 61.476057 -36.539336
L 61.883893 -37.046237
L 62.291713 -37.560484
L 62.699533 -38.082131
L 63.107353 -38.611261
L 63.515172 -39.147921
L 63.922992 -39.692185
L 64.330828 -40.244104
L 64.738648 -40.803743
L 65.146484 -41.371157
L 65.554303 -41.94642
L 65.962123 -42.529554
L 66.369943 -43.120649
L 66.777763 -43.719744
L 67.185583 -44.326894
L 67.593418 -44.942151
L 68.001238 -45.565563
L 68.409058 -46.197163
L 68.816894 -46.83702
L 69.224714 -47.485164
L 69.632533 -48.141642
L 70.040361 -48.806486
L 70.448189 -49.479736
L 70.856009 -50.161424
L 71.263829 -50.851592
L 71.671657 -51.550275
L 72.079484 -52.257485
L 72.487304 -52.973236
L 72.895124 -53.697574
L 73.302952 -54.4305
L 73.710772 -55.17204
L 74.118599 -55.922201
L 74.526427 -56.681006
L 74.934247 -57.448424
L 75.342075 -58.224498
L 75.749895 -59.00919
L 76.157714 -59.802526
L 76.565542 -60.604475
L 76.97337 -61.415046
L 77.38119 -62.234178
L 77.789018 -63.061894
L 78.196846 -63.898138
L 78.604665 -64.74287
L 79.012485 -65.596074
L 79.420313 -66.457716
L 79.828133 -67.327713
L 80.235961 -68.206058
L 80.64378 -69.09266
L 81.0516 -69.987438
L 81.459428 -70.890356
L 81.867256 -71.801344
L 82.275076 -72.72027
L 82.682903 -73.647115
L 83.090731 -74.581737
L 83.498551 -75.52401
L 83.906371 -76.473871
L 84.314199 -77.431208
L 84.722018 -78.39585
L 85.129846 -79.367731
L 85.537666 -80.34666
L 85.945494 -81.332489
L 86.353314 -82.325074
L 86.761141 -83.324276
L 87.168969 -84.329916
L 87.576789 -85.341778
L 87.984617 -86.359701
L 88.392437 -87.383477
L 88.800256 -88.41291
L 89.208084 -89.447767
L 89.615912 -90.487852
L 90.023732 -91.532872
L 90.43156 -92.582639
L 90.83938 -93.636877
L 91.247207 -94.695296
L 91.655027 -95.757654
L 92.062855 -96.823652
L 92.470675 -97.892972
L 92.878503 -98.96533
L 93.286322 -100.040391
L 93.694142 -101.117814
L 94.10197 -102.197261
L 94.509798 -103.278409
L 94.917618 -104.360818
L 95.325445 -105.444205
L 95.733265 -106.528091
L 96.141093 -107.612113
L 96.548913 -108.695861
L 96.956741 -109.778889
L 97.36456 -110.860765
L 97.772388 -111.941029
L 98.180216 -113.01924
L 98.588028 -114.094869
L 98.995864 -115.167476
L 99.403683 -116.236529
L 99.811503 -117.301523
L 100.219331 -118.361915
L 100.627159 -119.417193
L 101.034979 -120.46677
L 101.442798 -121.5101
L 101.850626 -122.546596
L 102.258454 -123.575686
L 102.666274 -124.596733
L 103.074102 -125.609162
L 103.481922 -126.612312
L 103.889749 -127.605549
L 104.297569 -128.588254
L 104.705397 -129.559767
L 105.113217 -130.519349
L 105.521045 -131.466416
L 105.928864 -132.40023
L 106.336684 -133.320088
L 106.744512 -134.22532
L 107.15234 -135.115205
L 107.56016 -135.988971
L 107.967987 -136.845965
L 108.375807 -137.685405
L 108.783635 -138.506581
L 109.191455 -139.308719
L 109.599283 -140.091132
L 110.007102 -140.853014
L 110.41493 -141.59366
L 110.822758 -142.312317
L 111.23057 -143.008227
L 111.638406 -143.680653
L 112.046226 -144.328875
L 112.454045 -144.952162
L 112.861873 -145.549759
L 113.269701 -146.121005
L 113.677521 -146.665171
L 114.085341 -147.181561
L 114.493168 -147.669549
L 114.900988 -148.128431
L 115.308816 -148.557588
L 115.716644 -148.95643
L 116.124464 -149.324371
L 116.532291 -149.660829
L 116.940111 -149.965314
L 117.347939 -150.237328
L 117.755759 -150.4764
L 118.163587 -150.682142
L 118.571406 -150.854203
L 118.979226 -150.992232
L 119.387054 -151.096004
L 119.794882 -151.165315
L 120.202702 -151.199983
L 120.61053 -151.2
L 121.018349 -151.165306
L 121.426177 -151.096022
L 121.833997 -150.992258
L 122.241825 -150.854195
L 122.649645 -150.682159
L 123.057472 -150.476408
L 123.465292 -150.23732
L 123.87312 -149.965306
L 124.280948 -149.660829
L 124.688768 -149.324354
L 125.096595 -148.956421
L 125.504415 -148.55758
L 125.912235 -148.128413
L 126.320063 -147.669532
L 126.727883 -147.181561
L 127.13571 -146.665162
L 127.543538 -146.120988
L 127.951358 -145.549759
L 128.359186 -144.952136
L 128.767006 -144.328866
L 129.174834 -143.680653
L 129.582653 -143.00821
L 129.990481 -142.312308
L 130.398301 -141.59366
L 130.806129 -140.853005
L 131.213949 -140.091123
L 131.621768 -139.308719
L 132.029596 -138.506572
L 132.437424 -137.685397
L 132.845244 -136.845947
L 133.253072 -135.988971
L 133.660891 -135.115188
L 134.068719 -134.225312
L 134.476539 -133.32008
L 134.884367 -132.400204
L 135.292187 -131.466399
L 135.700014 -130.51934
L 136.107834 -129.559741
L 136.515662 -128.588229
L 136.92349 -127.605524
L 137.33131 -126.612295
L 137.739133 -125.609136
L 138.146957 -124.596715
L 138.554781 -123.575669
L 138.962605 -122.546571
L 139.370429 -121.510082
L 139.778248 -120.466762
L 140.186076 -119.417175
L 140.5939 -118.361907
L 141.001724 -117.301514
L 141.409548 -116.236512
L 141.817372 -115.167458
L 142.225195 -114.094852
L 142.633019 -113.019215
L 143.040843 -111.94102
L 143.448671 -110.860748
L 143.856491 -109.778871
L 144.264314 -108.695853
L 144.672138 -107.612105
L 145.079962 -106.528091
L 145.487786 -105.444188
L 145.895614 -104.360826
L 146.303433 -103.278392
L 146.711257 -102.197253
L 147.119081 -101.117796
L 147.526905 -100.040366
L 147.934729 -98.965321
L 148.342556 -97.892963
L 148.750376 -96.823644
L 149.1582 -95.757646
L 149.566028 -94.695287
L 149.973848 -93.636869
L 150.381676 -92.582622
L 150.789499 -91.532855
L 151.197323 -90.487809
L 151.605147 -89.44775
L 152.012971 -88.412876
L 152.420791 -87.38346
L 152.828618 -86.359667
L 153.236442 -85.341753
L 153.644266 -84.329881
L 154.05209 -83.324267
L 154.459914 -82.325056
L 154.867733 -81.33248
L 155.275557 -80.346642
L 155.683385 -79.367714
L 156.091209 -78.39585
L 156.499033 -77.431195
L 156.906852 -76.473871
L 157.314684 -75.523997
L 157.722504 -74.581702
L 158.130328 -73.647098
L 158.538148 -72.72027
L 158.94598 -71.801322
L 159.353799 -70.890348
L 159.761623 -69.987425
L 160.169443 -69.092639
L 160.577271 -68.206045
L 160.985099 -67.327705
L 161.392918 -66.457703
L 161.800738 -65.596074
L 162.20857 -64.742853
L 162.61639 -63.898116
L 163.024214 -63.061877
L 163.432041 -62.234161
L 163.839865 -61.415024
L 164.247689 -60.604466
L 164.655509 -59.802526
L 165.063337 -59.009182
L 165.47116 -58.224481
L 165.878984 -57.448411
L 166.286804 -56.680993
L 166.694636 -55.922184
L 167.102456 -55.172031
L 167.510275 -54.430488
L 167.918099 -53.697566
L 168.325927 -52.973223
L 168.733751 -52.257464
L 169.141575 -51.550258
L 169.549394 -50.851592
L 169.957222 -50.16142
L 170.365046 -49.479727
L 170.77287 -48.806473
L 171.18069 -48.141642
L 171.588522 -47.485147
L 171.996341 -46.837011
L 172.404165 -46.197154
L 172.811985 -45.565559
L 173.219813 -44.942139
L 173.627637 -44.32689
L 174.03546 -43.719735
L 174.44328 -43.120649
L 174.851112 -42.529541
L 175.258932 -41.946407
L 175.666756 -41.37115
L 176.074583 -40.803735
L 176.482407 -40.244091
L 176.890227 -39.692183
L 177.298051 -39.147921
L 177.705879 -38.611252
L 178.113702 -38.082125
L 178.521526 -37.560473
L 178.929346 -37.046231
L 179.337174 -36.539325
L 179.744998 -36.0397
L 180.152817 -35.547294
L 180.560641 -35.062025
L 180.968469 -34.583835
L 181.376293 -34.112653
L 181.784113 -33.648416
L 182.191937 -33.191051
L 182.599768 -32.740486
L 183.007588 -32.296657
L 183.415412 -31.859494
L 183.823232 -31.428924
L 184.23106 -31.004869
L 184.638883 -30.587275
L 185.046707 -30.176063
L 185.454527 -29.771161
L 185.862355 -29.372492
L 186.270179 -28.980002
L 186.678002 -28.593613
L 187.085822 -28.213247
L 187.493654 -27.838836
L 187.901474 -27.470319
L 188.309298 -27.107618
L 188.717126 -26.750659
L 189.124945 -26.399382
L 189.532773 -26.053703
L 189.940593 -25.713578
L 190.348421 -25.378906
L 190.756241 -25.049639
L 191.164068 -24.725697
L 191.571888 -24.40703
L 191.979716 -24.093542
L 192.387544 -23.785181
L 192.795364 -23.481887
L 193.203183 -23.183589
L 193.611011 -22.890203
L 194.018831 -22.601681
L 194.426659 -22.317949
L 194.834479 -22.038956
L 195.242306 -21.764614
L 195.650126 -21.494877
L 196.057954 -21.22967
L 196.465774 -20.968944
L 196.873602 -20.712618
L 197.28143 -20.460639
L 197.689249 -20.212947
L 198.097069 -19.969486
L 198.504897 -19.730176
L 198.912725 -19.49497
L 199.320544 -19.263811
L 199.728364 -19.03664
L 200.136192 -18.813384
L 200.54402 -18.593998
L 200.95184 -18.378423
L 201.359668 -18.166605
L 201.767487 -17.95848
L 202.175315 -17.753993
L 202.583135 -17.553096
L 202.990963 -17.355732
L 203.398783 -17.161843
L 203.80661 -16.971374
L 204.21443 -16.784282
L 204.622258 -16.600508
L 205.030078 -16.420002
L 205.437906 -16.242709
L 205.845725 -16.068586
L 206.253553 -15.89758
L 206.661373 -15.72964
L 207.069201 -15.564715
L 207.477021 -15.402764
L 207.884848 -15.243737
L 208.292668 -15.087585
L 208.700496 -14.93426
L 209.108316 -14.783722
L 209.516144 -14.635924
L 209.923963 -14.490819
L 210.331791 -14.348364
L 210.739611 -14.208516
L 211.147439 -14.071235
L 211.555259 -13.936474
L 211.963087 -13.804192
L 212.370906 -13.67435
L 212.778734 -13.546908
L 213.186562 -13.421822
L 213.594382 -13.299056
L 214.002202 -13.178571
L 214.410029 -13.060328
L 214.817857 -12.944286
L 215.225677 -12.830412
L 215.633505 -12.718665
L 216.041325 -12.609016
L 216.449152 -12.501421
L 216.856972 -12.39585
L 217.2648 -12.292263
L 217.67262 -12.190635
L 218.080448 -12.090921
L 218.488267 -11.993096
L 218.896095 -11.897122
L 219.303915 -11.802972
L 219.711743 -11.71061
L 220.119563 -11.620005
L 220.527391 -11.531127
L 220.93521 -11.443949
L 221.343038 -11.358435
L 221.750858 -11.274559
L 222.158678 -11.192292
L 222.158678 -7.2
L 222.158678 -7.2
L 221.750858 -7.2
L 221.343038 -7.2
L 220.93521 -7.2
L 220.527391 -7.2
L 220.119563 -7.2
L 219.711743 -7.2
L 219.303915 -7.2
L 218.896095 -7.2
L 218.488267 -7.2
L 218.080448 -7.2
L 217.67262 -7.2
L 217.2648 -7.2
L 216.856972 -7.2
L 216.449152 -7.2
L 216.041325 -7.2
L 215.633505 -7.2
L 215.225677 -7.2
L 214.817857 -7.2
L 214.410029 -7.2
L 214.002202 -7.2
L 213.594382 -7.2
L 213.186562 -7.2
L 212.778734 -7.2
L 212.370906 -7.2
L 211.963087 -7.2
L 211.555259 -7.2
L 211.147439 -7.2
L 210.739611 -7.2
L 210.331791 -7.2
L 209.923963 -7.2
L 209.516144 -7.2
L 209.108316 -7.2
L 208.700496 -7.2
L 208.292668 -7.2
L 207.884848 -7.2
L 207.477021 -7.2
L 207.069201 -7.2
L 206.661373 -7.2
L 206.253553 -7.2
L 205.845725 -7.2
L 205.437906 -7.2
L 205.030078 -7.2
L 204.622258 -7.2
L 204.21443 -7.2
L 203.80661 -7.2
L 203.398783 -7.2
L 202.990963 -7.2
L 202.583135 -7.2
L 202.175315 -7.2
L 201.767487 -7.2
L 201.359668 -7.2
L 200.95184 -7.2
L 200.54402 -7.2
L 200.136192 -7.2
L 199.728364 -7.2
L 199.320544 -7.2
L 198.912725 -7.2
L 198.504897 -7.2
L 198.097069 -7.2
L 197.689249 -7.2
L 197.28143 -7.2
L 196.873602 -7.2
L 196.465774 -7.2
L 196.057954 -7.2
L 195.650126 -7.2
L 195.242306 -7.2
L 194.834479 -7.2
L 194.426659 -7.2
L 194.018831 -7.2
L 193.611011 -7.2
L 193.203183 -7.2
L 192.795364 -7.2
L 192.387544 -7.2
L 191.979716 -7.2
L 191.571888 -7.2
L 191.164068 -7.2
L 190.756241 -7.2
L 190.348421 -7.2
L 189.940593 -7.2
L 189.532773 -7.2
L 189.124945 -7.2
L 188.717126 -7.2
L 188.309298 -7.2
L 187.901474 -7.2
L 187.493654 -7.2
L 187.085822 -7.2
L 186.678002 -7.2
L 186.270179 -7.2
L 185.862355 -7.2
L 185.454527 -7.2
L 185.046707 -7.2
L 184.638883 -7.2
L 184.23106 -7.2
L 183.823232 -7.2
L 183.415412 -7.2
L 183.007588 -7.2
L 182.599768 -7.2
L 182.191937 -7.2
L 181.784113 -7.2
L 181.376293 -7.2
L 180.968469 -7.2
L 180.560641 -7.2
L 180.152817 -7.2
L 179.744998 -7.2
L 179.337174 -7.2
L 178.929346 -7.2
L 178.521526 -7.2
L 178.113702 -7.2
L 177.705879 -7.2
L 177.298051 -7.2
L 176.890227 -7.2
L 176.482407 -7.2
L 176.074583 -7.2
L 175.666756 -7.2
L 175.258932 -7.2
L 174.851112 -7.2
L 174.44328 -7.2
L 174.03546 -7.2
L 173.627637 -7.2
L 173.219813 -7.2
L 172.811985 -7.2
L 172.404165 -7.2
L 171.996341 -7.2
L 171.588522 -7.2
L 171.18069 -7.2
L 170.77287 -7.2
L 170.365046 -7.2
L 169.957222 -7.2
L 169.549394 -7.2
L 169.141575 -7.2
L 168.733751 -7.2
L 168.325927 -7.2
L 167.918099 -7.2
L 167.510275 -7.2
L 167.102456 -7.2
L 166.694636 -7.2
L 166.286804 -7.2
L 165.878984 -7.2
L 165.47116 -7.2
L 165.063337 -7.2
L 164.655509 -7.2
L 164.247689 -7.2
L 163.839865 -7.2
L 163.432041 -7.2
L 163.024214 -7.2
L 162.61639 -7.2
L 162.20857 -7.2
L 161.800738 -7.2
L 161.392918 -7.2
L 160.985099 -7.2
L 160.577271 -7.2
L 160.169443 -7.2
L 159.761623 -7.2
L 159.353799 -7.2
L 158.94598 -7.2
L 158.538148 -7.2
L 158.130328 -7.2
L 157.722504 -7.2
L 157.314684 -7.2
L 156.906852 -7.2
L 156.499033 -7.2
L 156.091209 -7.2
L 155.683385 -7.2
L 155.275557 -7.2
L 154.867733 -7.2
L 154.459914 -7.2
L 154.05209 -7.2
L 153.644266 -7.2
L 153.236442 -7.2
L 152.828618 -7.2
L 152.420791 -7.2
L 152.012971 -7.2
L 151.605147 -7.2
L 151.197323 -7.2
L 150.789499 -7.2
L 150.381676 -7.2
L 149.973848 -7.2
L 149.566028 -7.2
L 149.1582 -7.2
L 148.750376 -7.2
L 148.342556 -7.2
L 147.934729 -7.2
L 147.526905 -7.2
L 147.119081 -7.2
L 146.711257 -7.2
L 146.303433 -7.2
L 145.895614 -7.2
L 145.487786 -7.2
L 145.079962 -7.2
L 144.672138 -7.2
L 144.264314 -7.2
L 143.856491 -7.2
L 143.448671 -7.2
L 143.040843 -7.2
L 142.633019 -7.2
L 142.225195 -7.2
L 141.817372 -7.2
L 141.409548 -7.2
L 141.001724 -7.2
L 140.5939 -7.2
L 140.186076 -7.2
L 139.778248 -7.2
L 139.370429 -7.2
L 138.962605 -7.2
L 138.554781 -7.2
L 138.146957 -7.2
L 137.739133 -7.2
L 137.33131 -7.2
L 136.92349 -7.2
L 136.515662 -7.2
L 136.107834 -7.2
L 135.700014 -7.2
L 135.292187 -7.2
L 134.884367 -7.2
L 134.476539 -7.2
L 134.068719 -7.2
L 133.660891 -7.2
L 133.253072 -7.2
L 132.845244 -7.2
L 132.437424 -7.2
L 132.029596 -7.2
L 131.621768 -7.2
L 131.213949 -7.2
L 130.806129 -7.2
L 130.398301 -7.2
L 129.990481 -7.2
L 129.582653 -7.2
L 129.174834 -7.2
L 128.767006 -7.2
L 128.359186 -7.2
L 127.951358 -7.2
L 127.543538 -7.2
L 127.13571 -7.2
L 126.727883 -7.2
L 126.320063 -7.2
L 125.912235 -7.2
L 125.504415 -7.2
L 125.096595 -7.2
L 124.688768 -7.2
L 124.280948 -7.2
L 123.87312 -7.2
L 123.465292 -7.2
L 123.057472 -7.2
L 122.649645 -7.2
L 122.241825 -7.2
L 121.833997 -7.2
L 121.426177 -7.2
L 121.018349 -7.2
L 120.61053 -7.2
L 120.202702 -7.2
L 119.794882 -7.2
L 119.387054 -7.2
L 118.979226 -7.2
L 118.571406 -7.2
L 118.163587 -7.2
L 117.755759 -7.2
L 117.347939 -7.2
L 116.940111 -7.2
L 116.532291 -7.2
L 116.124464 -7.2
L 115.716644 -7.2
L 115.308816 -7.2
L 114.900988 -7.2
L 114.493168 -7.2
L 114.085341 -7.2
L 113.677521 -7.2
L 113.269701 -7.2
L 112.861873 -7.2
L 112.454045 -7.2
L 112.046226 -7.2
L 111.638406 -7.2
L 111.23057 -7.2
L 110.822758 -7.2
L 110.41493 -7.2
L 110.007102 -7.2
L 109.599283 -7.2
L 109.191455 -7.2
L 108.783635 -7.2
L 108.375807 -7.2
L 107.967987 -7.2
L 107.56016 -7.2
L 107.15234 -7.2
L 106.744512 -7.2
L 106.336684 -7.2
L 105.928864 -7.2
L 105.521045 -7.2
L 105.113217 -7.2
L 104.705397 -7.2
L 104.297569 -7.2
L 103.889749 -7.2
L 103.481922 -7.2
L 103.074102 -7.2
L 102.666274 -7.2
L 102.258454 -7.2
L 101.850626 -7.2
L 101.442798 -7.2
L 101.034979 -7.2
L 100.627159 -7.2
L 100.219331 -7.2
L 99.811503 -7.2
L 99.403683 -7.2
L 98.995864 -7.2
L 98.588028 -7.2
L 98.180216 -7.2
L 97.772388 -7.2
L 97.36456 -7.2
L 96.956741 -7.2
L 96.548913 -7.2
L 96.141093 -7.2
L 95.733265 -7.2
L 95.325445 -7.2
L 94.917618 -7.2
L 94.509798 -7.2
L 94.10197 -7.2
L 93.694142 -7.2
L 93.286322 -7.2
L 92.878503 -7.2
L 92.470675 -7.2
L 92.062855 -7.2
L 91.655027 -7.2
L 91.247207 -7.2
L 90.83938 -7.2
L 90.43156 -7.2
L 90.023732 -7.2
L 89.615912 -7.2
L 89.208084 -7.2
L 88.800256 -7.2
L 88.392437 -7.2
L 87.984617 -7.2
L 87.576789 -7.2
L 87.168969 -7.2
L 86.761141 -7.2
L 86.353314 -7.2
L 85.945494 -7.2
L 85.537666 -7.2
L 85.129846 -7.2
L 84.722018 -7.2
L 84.314199 -7.2
L 83.906371 -7.2
L 83.498551 -7.2
L 83.090731 -7.2
L 82.682903 -7.2
L 82.275076 -7.2
L 81.867256 -7.2
L 81.459428 -7.2
L 81.0516 -7.2
L 80.64378 -7.2
L 80.235961 -7.2
L 79.828133 -7.2
L 79.420313 -7.2
L 79.012485 -7.2
L 78.604665 -7.2
L 78.196846 -7.2
L 77.789018 -7.2
L 77.38119 -7.2
L 76.97337 -7.2
L 76.565542 -7.2
L 76.157714 -7.2
L 75.749895 -7.2
L 75.342075 -7.2
L 74.934247 -7.2
L 74.526427 -7.2
L 74.118599 -7.2
L 73.710772 -7.2
L 73.302952 -7.2
L 72.895124 -7.2
L 72.487304 -7.2
L 72.079484 -7.2
L 71.671657 -7.2
L 71.263829 -7.2
L 70.856009 -7.2
L 70.448189 -7.2
L 70.040361 -7.2
L 69.632533 -7.2
L 69.224714 -7.2
L 68.816894 -7.2
L 68.409058 -7.2
L 68.001238 -7.2
L 67.593418 -7.2
L 67.185583 -7.2
L 66.777763 -7.2
L 66.369943 -7.2
L 65.962123 -7.2
L 65.554303 -7.2
L 65.146484 -7.2
L 64.738648 -7.2
L 64.330828 -7.2
L 63.922992 -7.2
L 63.515172 -7.2
L 63.107353 -7.2
L 62.699533 -7.2
L 62.291713 -7.2
L 61.883893 -7.2
L 61.476057 -7.2
L 61.068221 -7.2
L 60.660402 -7.2
L 60.252582 -7.2
L 59.844762 -7.2
L 59.436942 -7.2
L 59.029123 -7.2
L 58.621287 -7.2
L 58.213467 -7.2
L 57.805647 -7.2
L 57.397811 -7.2
L 56.989991 -7.2
L 56.582172 -7.2
L 56.174352 -7.2
L 55.766516 -7.2
L 55.358696 -7.2
L 54.950876 -7.2
L 54.54304 -7.2
L 54.135221 -7.2
L 53.727401 -7.2
L 53.319581 -7.2
L 52.911761 -7.2
L 52.503942 -7.2
L 52.096106 -7.2
L 51.688286 -7.2
L 51.28045 -7.2
L 50.87263 -7.2
L 50.46481 -7.2
L 50.056991 -7.2
L 49.649171 -7.2
L 49.241351 -7.2
L 48.833515 -7.2
L 48.425679 -7.2
L 48.01786 -7.2
L 47.61004 -7.2
L 47.20222 -7.2
L 46.7944 -7.2
L 46.386581 -7.2
L 45.978745 -7.2
L 45.570925 -7.2
L 45.163105 -7.2
L 44.755269 -7.2
L 44.347449 -7.2
L 43.93963 -7.2
L 43.53181 -7.2
L 43.12399 -7.2
L 42.716154 -7.2
L 42.308334 -7.2
L 41.900515 -7.2
L 41.492679 -7.2
L 41.084859 -7.2
L 40.677039 -7.2
L 40.269219 -7.2
L 39.8614 -7.2
L 39.453564 -7.2
L 39.045744 -7.2
L 38.637908 -7.2
L 38.230088 -7.2
L 37.822268 -7.2
L 37.414449 -7.2
L 37.006629 -7.2
L 36.598809 -7.2
L 36.190973 -7.2
L 35.783137 -7.2
L 35.375317 -7.2
L 34.967498 -7.2
L 34.559678 -7.2
L 34.151858 -7.2
L 33.744038 -7.2
L 33.336203 -7.2
L 32.928383 -7.2
L 32.520563 -7.2
L 32.112727 -7.2
L 31.704907 -7.2
L 31.297088 -7.2
L 30.889268 -7.2
L 30.481448 -7.2
L 30.073612 -7.2
L 29.665792 -7.2
L 29.257973 -7.2
L 28.850137 -7.2
L 28.442317 -7.2
L 28.034497 -7.2
L 27.626677 -7.2
L 27.218858 -7.2
L 26.811038 -7.2
L 26.403202 -7.2
L 25.995366 -7.2
L 25.587546 -7.2
L 25.179726 -7.2
L 24.771907 -7.2
L 24.364087 -7.2
L 23.956267 -7.2
L 23.548431 -7.2
L 23.140595 -7.2
L 22.732775 -7.2
L 22.324956 -7.2
L 21.917136 -7.2
L 21.509316 -7.2
L 21.101496 -7.2
L 20.69366 -7.2
L 20.285841 -7.2
L 19.878021 -7.2
L 19.470185 -7.2
L 19.062365 -7.2
L 18.654545 -7.2
z
" style="stroke: #5e97f6; stroke-opacity: 0.2"/>
    </defs>
    <g clip-path="url(#p915f1ce322)">
     <use xlink:href="#m53c1ac76d0" x="0" y="158.4" style="fill: #5e97f6; fill-opacity: 0.2; stroke: #5e97f6; stroke-opacity: 0.2"/>
    </g>
   </g>
   <g id="PolyCollection_2">
    <defs>
     <path id="m5a4789e940" d="M 103.447934 -7.2
L 103.447934 -11.192292
L 103.855762 -11.274561
L 104.263581 -11.358436
L 104.671409 -11.44395
L 105.079229 -11.531129
L 105.487049 -11.620005
L 105.894877 -11.710611
L 106.302705 -11.802974
L 106.710524 -11.897123
L 107.118352 -11.993097
L 107.526172 -12.090923
L 107.933992 -12.190635
L 108.34182 -12.292265
L 108.749647 -12.395851
L 109.157467 -12.501423
L 109.565295 -12.609019
L 109.973115 -12.718667
L 110.380935 -12.830412
L 110.788762 -12.944288
L 111.19659 -13.06033
L 111.604418 -13.178576
L 112.012238 -13.299059
L 112.420058 -13.421824
L 112.827885 -13.546911
L 113.235705 -13.67435
L 113.643533 -13.804194
L 114.051361 -13.936476
L 114.459181 -14.071237
L 114.867 -14.208516
L 115.274828 -14.348366
L 115.682648 -14.490819
L 116.090476 -14.635927
L 116.498304 -14.783729
L 116.906124 -14.934262
L 117.313951 -15.087588
L 117.721771 -15.24374
L 118.129591 -15.402764
L 118.537419 -15.564718
L 118.945247 -15.729642
L 119.353066 -15.897582
L 119.760894 -16.068592
L 120.168714 -16.242712
L 120.576534 -16.420002
L 120.984362 -16.600513
L 121.392189 -16.784289
L 121.800009 -16.971378
L 122.207837 -17.161847
L 122.615657 -17.355735
L 123.023477 -17.553096
L 123.431304 -17.753997
L 123.839132 -17.958484
L 124.246952 -18.166609
L 124.65478 -18.378433
L 125.0626 -18.594001
L 125.470419 -18.813384
L 125.878247 -19.03664
L 126.286075 -19.26382
L 126.693903 -19.494978
L 127.101723 -19.73018
L 127.509543 -19.969486
L 127.91737 -20.212956
L 128.32519 -20.460642
L 128.733018 -20.712623
L 129.140846 -20.96895
L 129.548666 -21.229681
L 129.956493 -21.494882
L 130.364313 -21.764619
L 130.772133 -22.038956
L 131.179961 -22.317962
L 131.587789 -22.601686
L 131.995608 -22.890207
L 132.403428 -23.183589
L 132.811256 -23.481898
L 133.219076 -23.785189
L 133.626904 -24.093548
L 134.034732 -24.407037
L 134.442551 -24.72571
L 134.850379 -25.049645
L 135.258199 -25.378912
L 135.666019 -25.713578
L 136.073847 -26.053716
L 136.481674 -26.399386
L 136.889494 -26.750665
L 137.297322 -27.107624
L 137.705146 -27.470325
L 138.112966 -27.838842
L 138.520789 -28.213247
L 138.928617 -28.593619
L 139.336437 -28.98001
L 139.744265 -29.3725
L 140.152089 -29.771168
L 140.559908 -30.176061
L 140.967732 -30.587281
L 141.37556 -31.004875
L 141.783388 -31.42893
L 142.191208 -31.859502
L 142.599031 -32.296662
L 143.006855 -32.740491
L 143.414675 -33.191051
L 143.822503 -33.648428
L 144.230331 -34.112673
L 144.638151 -34.583844
L 145.045974 -35.062025
L 145.453798 -35.547299
L 145.861618 -36.039703
L 146.269446 -36.539336
L 146.677274 -37.046237
L 147.085093 -37.560484
L 147.492917 -38.082131
L 147.900741 -38.611261
L 148.308561 -39.147921
L 148.716389 -39.692185
L 149.124216 -40.244104
L 149.532036 -40.803743
L 149.939864 -41.371157
L 150.347688 -41.94642
L 150.755508 -42.529554
L 151.163331 -43.120649
L 151.571159 -43.719744
L 151.978979 -44.326894
L 152.386807 -44.942151
L 152.794631 -45.565563
L 153.20245 -46.197163
L 153.610274 -46.83702
L 154.018102 -47.485164
L 154.425922 -48.141642
L 154.83375 -48.806486
L 155.241574 -49.479736
L 155.649393 -50.161424
L 156.057217 -50.851592
L 156.465045 -51.550275
L 156.872873 -52.257485
L 157.280693 -52.973236
L 157.688516 -53.697574
L 158.09634 -54.4305
L 158.50416 -55.17204
L 158.911988 -55.922201
L 159.319816 -56.681006
L 159.727635 -57.448424
L 160.135459 -58.224498
L 160.543283 -59.00919
L 160.951103 -59.802526
L 161.358931 -60.604475
L 161.766758 -61.415046
L 162.174578 -62.234178
L 162.582406 -63.061894
L 162.99023 -63.898138
L 163.39805 -64.74287
L 163.805873 -65.596074
L 164.213701 -66.457716
L 164.621521 -67.327713
L 165.029349 -68.206058
L 165.437173 -69.09266
L 165.844993 -69.987438
L 166.252816 -70.890356
L 166.660644 -71.801344
L 167.068464 -72.72027
L 167.476292 -73.647115
L 167.884116 -74.581737
L 168.291935 -75.52401
L 168.699759 -76.473871
L 169.107587 -77.431208
L 169.515407 -78.39585
L 169.923235 -79.367731
L 170.331058 -80.34666
L 170.738882 -81.332489
L 171.146702 -82.325074
L 171.55453 -83.324276
L 171.962358 -84.329916
L 172.370175 -85.341778
L 172.778003 -86.359701
L 173.185827 -87.383477
L 173.593649 -88.41291
L 174.001473 -89.447767
L 174.409301 -90.487852
L 174.817118 -91.532872
L 175.224946 -92.582639
L 175.63277 -93.636877
L 176.040592 -94.695296
L 176.448416 -95.757654
L 176.856243 -96.823652
L 177.264061 -97.892972
L 177.671889 -98.96533
L 178.079713 -100.040391
L 178.487535 -101.117814
L 178.895358 -102.197261
L 179.303186 -103.278409
L 179.711004 -104.360818
L 180.118832 -105.444205
L 180.526656 -106.528091
L 180.934477 -107.612113
L 181.342301 -108.695861
L 181.750129 -109.778889
L 182.157951 -110.860765
L 182.565775 -111.941029
L 182.973603 -113.01924
L 183.38142 -114.094869
L 183.789248 -115.167476
L 184.197072 -116.236529
L 184.604894 -117.301523
L 185.012718 -118.361915
L 185.420545 -119.417193
L 185.828369 -120.46677
L 186.236191 -121.5101
L 186.644015 -122.546596
L 187.051843 -123.575686
L 187.45966 -124.596733
L 187.867488 -125.609162
L 188.275312 -126.612312
L 188.683134 -127.605549
L 189.090958 -128.588254
L 189.498785 -129.559767
L 189.906603 -130.519349
L 190.314431 -131.466416
L 190.722255 -132.40023
L 191.130077 -133.320088
L 191.5379 -134.22532
L 191.945728 -135.115205
L 192.353546 -135.988971
L 192.761374 -136.845965
L 193.169198 -137.685405
L 193.577019 -138.506581
L 193.984843 -139.308719
L 194.392671 -140.091132
L 194.800493 -140.853014
L 195.208317 -141.59366
L 195.616145 -142.312317
L 196.023962 -143.008227
L 196.43179 -143.680653
L 196.839614 -144.328875
L 197.247436 -144.952162
L 197.65526 -145.549759
L 198.063087 -146.121005
L 198.470905 -146.665171
L 198.878733 -147.181561
L 199.286557 -147.669549
L 199.694379 -148.128431
L 200.102202 -148.557588
L 200.51003 -148.95643
L 200.917854 -149.324371
L 201.325676 -149.660829
L 201.7335 -149.965314
L 202.141328 -150.237328
L 202.549145 -150.4764
L 202.956973 -150.682142
L 203.364797 -150.854203
L 203.772619 -150.992232
L 204.180443 -151.096004
L 204.58827 -151.165315
L 204.996088 -151.199983
L 205.403916 -151.2
L 205.811737 -151.165306
L 206.219565 -151.096022
L 206.627385 -150.992258
L 207.03521 -150.854195
L 207.443034 -150.682159
L 207.850859 -150.476408
L 208.258684 -150.23732
L 208.666507 -149.965306
L 209.074332 -149.660829
L 209.482153 -149.324354
L 209.889981 -148.956421
L 210.297802 -148.55758
L 210.705626 -148.128413
L 211.11345 -147.669532
L 211.521275 -147.181561
L 211.929099 -146.665162
L 212.336924 -146.120988
L 212.744744 -145.549759
L 213.152572 -144.952136
L 213.560393 -144.328866
L 213.968218 -143.680653
L 214.376042 -143.00821
L 214.783867 -142.312308
L 215.191687 -141.59366
L 215.599515 -140.853005
L 216.007336 -140.091123
L 216.415161 -139.308719
L 216.822985 -138.506572
L 217.230809 -137.685397
L 217.63863 -136.845947
L 218.046458 -135.988971
L 218.454279 -135.115188
L 218.862104 -134.225312
L 219.269927 -133.32008
L 219.677752 -132.400204
L 220.085576 -131.466399
L 220.493401 -130.51934
L 220.901222 -129.559741
L 221.309049 -128.588229
L 221.716874 -127.605524
L 222.124695 -126.612295
L 222.532522 -125.609136
L 222.940344 -124.596715
L 223.34817 -123.575669
L 223.755993 -122.546571
L 224.163817 -121.510082
L 224.571637 -120.466762
L 224.979465 -119.417175
L 225.387287 -118.361907
L 225.795112 -117.301514
L 226.202936 -116.236512
L 226.61076 -115.167458
L 227.018584 -114.094852
L 227.426408 -113.019215
L 227.834229 -111.94102
L 228.242057 -110.860748
L 228.649879 -109.778871
L 229.057703 -108.695853
L 229.465527 -107.612105
L 229.87335 -106.528091
L 230.281172 -105.444188
L 230.689 -104.360826
L 231.096822 -103.278392
L 231.504646 -102.197253
L 231.912469 -101.117796
L 232.320293 -100.040366
L 232.728115 -98.965321
L 233.135943 -97.892963
L 233.543765 -96.823644
L 233.951588 -95.757646
L 234.359416 -94.695287
L 234.767236 -93.636869
L 235.175064 -92.582622
L 235.582886 -91.532855
L 235.990712 -90.487809
L 236.398535 -89.44775
L 236.806359 -88.412876
L 237.214179 -87.38346
L 237.622007 -86.359667
L 238.029829 -85.341753
L 238.437654 -84.329881
L 238.845478 -83.324267
L 239.253302 -82.325056
L 239.661122 -81.33248
L 240.068946 -80.346642
L 240.476773 -79.367714
L 240.884597 -78.39585
L 241.292421 -77.431195
L 241.700241 -76.473871
L 242.108073 -75.523997
L 242.515892 -74.581702
L 242.923716 -73.647098
L 243.331536 -72.72027
L 243.739368 -71.801322
L 244.147188 -70.890348
L 244.555012 -69.987425
L 244.962831 -69.092639
L 245.370659 -68.206045
L 245.778487 -67.327705
L 246.186307 -66.457703
L 246.594127 -65.596074
L 247.001958 -64.742853
L 247.409778 -63.898116
L 247.817602 -63.061877
L 248.22543 -62.234161
L 248.633254 -61.415024
L 249.041077 -60.604466
L 249.448897 -59.802526
L 249.856725 -59.009182
L 250.264549 -58.224481
L 250.672373 -57.448411
L 251.080192 -56.680993
L 251.488024 -55.922184
L 251.895844 -55.172031
L 252.303664 -54.430488
L 252.711488 -53.697566
L 253.119316 -52.973223
L 253.527139 -52.257464
L 253.934963 -51.550258
L 254.342783 -50.851592
L 254.750611 -50.16142
L 255.158435 -49.479727
L 255.566258 -48.806473
L 255.974078 -48.141642
L 256.38191 -47.485147
L 256.78973 -46.837011
L 257.197554 -46.197154
L 257.605373 -45.565559
L 258.013201 -44.942139
L 258.421025 -44.32689
L 258.828849 -43.719735
L 259.236669 -43.120649
L 259.6445 -42.529541
L 260.05232 -41.946407
L 260.460144 -41.37115
L 260.867972 -40.803735
L 261.275796 -40.244091
L 261.683615 -39.692183
L 262.091439 -39.147921
L 262.499267 -38.611252
L 262.907091 -38.082125
L 263.314915 -37.560473
L 263.722734 -37.046231
L 264.130562 -36.539325
L 264.538386 -36.0397
L 264.946206 -35.547294
L 265.35403 -35.062025
L 265.761858 -34.583835
L 266.169681 -34.112653
L 266.577501 -33.648416
L 266.985325 -33.191051
L 267.393157 -32.740486
L 267.800977 -32.296657
L 268.2088 -31.859494
L 268.61662 -31.428924
L 269.024448 -31.004869
L 269.432272 -30.587275
L 269.840096 -30.176063
L 270.247915 -29.771161
L 270.655743 -29.372492
L 271.063567 -28.980002
L 271.471391 -28.593613
L 271.879211 -28.213247
L 272.287043 -27.838836
L 272.694862 -27.470319
L 273.102686 -27.107618
L 273.510514 -26.750659
L 273.918334 -26.399382
L 274.326162 -26.053703
L 274.733981 -25.713578
L 275.141809 -25.378906
L 275.549629 -25.049639
L 275.957457 -24.725697
L 276.365277 -24.40703
L 276.773104 -24.093542
L 277.180932 -23.785181
L 277.588752 -23.481887
L 277.996572 -23.183589
L 278.4044 -22.890203
L 278.812219 -22.601681
L 279.220047 -22.317949
L 279.627867 -22.038956
L 280.035695 -21.764614
L 280.443515 -21.494877
L 280.851342 -21.22967
L 281.259162 -20.968944
L 281.66699 -20.712618
L 282.074818 -20.460639
L 282.482638 -20.212947
L 282.890457 -19.969486
L 283.298285 -19.730176
L 283.706113 -19.49497
L 284.113933 -19.263811
L 284.521753 -19.03664
L 284.929581 -18.813384
L 285.337408 -18.593998
L 285.745228 -18.378423
L 286.153056 -18.166605
L 286.560876 -17.95848
L 286.968704 -17.753993
L 287.376523 -17.553096
L 287.784351 -17.355732
L 288.192171 -17.161843
L 288.599999 -16.971374
L 289.007819 -16.784282
L 289.415646 -16.600508
L 289.823466 -16.420002
L 290.231294 -16.242709
L 290.639114 -16.068586
L 291.046942 -15.89758
L 291.454761 -15.72964
L 291.862589 -15.564715
L 292.270409 -15.402764
L 292.678237 -15.243737
L 293.086057 -15.087585
L 293.493885 -14.93426
L 293.901704 -14.783722
L 294.309532 -14.635924
L 294.717352 -14.490819
L 295.12518 -14.348364
L 295.533 -14.208516
L 295.940827 -14.071235
L 296.348647 -13.936474
L 296.756475 -13.804192
L 297.164295 -13.67435
L 297.572123 -13.546908
L 297.97995 -13.421822
L 298.38777 -13.299056
L 298.79559 -13.178571
L 299.203418 -13.060328
L 299.611246 -12.944286
L 300.019065 -12.830412
L 300.426893 -12.718665
L 300.834713 -12.609016
L 301.242541 -12.501421
L 301.650361 -12.39585
L 302.058189 -12.292263
L 302.466008 -12.190635
L 302.873836 -12.090921
L 303.281656 -11.993096
L 303.689484 -11.897122
L 304.097304 -11.802972
L 304.505131 -11.71061
L 304.912951 -11.620005
L 305.320779 -11.531127
L 305.728599 -11.443949
L 306.136427 -11.358435
L 306.544246 -11.274559
L 306.952066 -11.192292
L 306.952066 -7.2
L 306.952066 -7.2
L 306.544246 -7.2
L 306.136427 -7.2
L 305.728599 -7.2
L 305.320779 -7.2
L 304.912951 -7.2
L 304.505131 -7.2
L 304.097304 -7.2
L 303.689484 -7.2
L 303.281656 -7.2
L 302.873836 -7.2
L 302.466008 -7.2
L 302.058189 -7.2
L 301.650361 -7.2
L 301.242541 -7.2
L 300.834713 -7.2
L 300.426893 -7.2
L 300.019065 -7.2
L 299.611246 -7.2
L 299.203418 -7.2
L 298.79559 -7.2
L 298.38777 -7.2
L 297.97995 -7.2
L 297.572123 -7.2
L 297.164295 -7.2
L 296.756475 -7.2
L 296.348647 -7.2
L 295.940827 -7.2
L 295.533 -7.2
L 295.12518 -7.2
L 294.717352 -7.2
L 294.309532 -7.2
L 293.901704 -7.2
L 293.493885 -7.2
L 293.086057 -7.2
L 292.678237 -7.2
L 292.270409 -7.2
L 291.862589 -7.2
L 291.454761 -7.2
L 291.046942 -7.2
L 290.639114 -7.2
L 290.231294 -7.2
L 289.823466 -7.2
L 289.415646 -7.2
L 289.007819 -7.2
L 288.599999 -7.2
L 288.192171 -7.2
L 287.784351 -7.2
L 287.376523 -7.2
L 286.968704 -7.2
L 286.560876 -7.2
L 286.153056 -7.2
L 285.745228 -7.2
L 285.337408 -7.2
L 284.929581 -7.2
L 284.521753 -7.2
L 284.113933 -7.2
L 283.706113 -7.2
L 283.298285 -7.2
L 282.890457 -7.2
L 282.482638 -7.2
L 282.074818 -7.2
L 281.66699 -7.2
L 281.259162 -7.2
L 280.851342 -7.2
L 280.443515 -7.2
L 280.035695 -7.2
L 279.627867 -7.2
L 279.220047 -7.2
L 278.812219 -7.2
L 278.4044 -7.2
L 277.996572 -7.2
L 277.588752 -7.2
L 277.180932 -7.2
L 276.773104 -7.2
L 276.365277 -7.2
L 275.957457 -7.2
L 275.549629 -7.2
L 275.141809 -7.2
L 274.733981 -7.2
L 274.326162 -7.2
L 273.918334 -7.2
L 273.510514 -7.2
L 273.102686 -7.2
L 272.694862 -7.2
L 272.287043 -7.2
L 271.879211 -7.2
L 271.471391 -7.2
L 271.063567 -7.2
L 270.655743 -7.2
L 270.247915 -7.2
L 269.840096 -7.2
L 269.432272 -7.2
L 269.024448 -7.2
L 268.61662 -7.2
L 268.2088 -7.2
L 267.800977 -7.2
L 267.393157 -7.2
L 266.985325 -7.2
L 266.577501 -7.2
L 266.169681 -7.2
L 265.761858 -7.2
L 265.35403 -7.2
L 264.946206 -7.2
L 264.538386 -7.2
L 264.130562 -7.2
L 263.722734 -7.2
L 263.314915 -7.2
L 262.907091 -7.2
L 262.499267 -7.2
L 262.091439 -7.2
L 261.683615 -7.2
L 261.275796 -7.2
L 260.867972 -7.2
L 260.460144 -7.2
L 260.05232 -7.2
L 259.6445 -7.2
L 259.236669 -7.2
L 258.828849 -7.2
L 258.421025 -7.2
L 258.013201 -7.2
L 257.605373 -7.2
L 257.197554 -7.2
L 256.78973 -7.2
L 256.38191 -7.2
L 255.974078 -7.2
L 255.566258 -7.2
L 255.158435 -7.2
L 254.750611 -7.2
L 254.342783 -7.2
L 253.934963 -7.2
L 253.527139 -7.2
L 253.119316 -7.2
L 252.711488 -7.2
L 252.303664 -7.2
L 251.895844 -7.2
L 251.488024 -7.2
L 251.080192 -7.2
L 250.672373 -7.2
L 250.264549 -7.2
L 249.856725 -7.2
L 249.448897 -7.2
L 249.041077 -7.2
L 248.633254 -7.2
L 248.22543 -7.2
L 247.817602 -7.2
L 247.409778 -7.2
L 247.001958 -7.2
L 246.594127 -7.2
L 246.186307 -7.2
L 245.778487 -7.2
L 245.370659 -7.2
L 244.962831 -7.2
L 244.555012 -7.2
L 244.147188 -7.2
L 243.739368 -7.2
L 243.331536 -7.2
L 242.923716 -7.2
L 242.515892 -7.2
L 242.108073 -7.2
L 241.700241 -7.2
L 241.292421 -7.2
L 240.884597 -7.2
L 240.476773 -7.2
L 240.068946 -7.2
L 239.661122 -7.2
L 239.253302 -7.2
L 238.845478 -7.2
L 238.437654 -7.2
L 238.029829 -7.2
L 237.622007 -7.2
L 237.214179 -7.2
L 236.806359 -7.2
L 236.398535 -7.2
L 235.990712 -7.2
L 235.582886 -7.2
L 235.175064 -7.2
L 234.767236 -7.2
L 234.359416 -7.2
L 233.951588 -7.2
L 233.543765 -7.2
L 233.135943 -7.2
L 232.728115 -7.2
L 232.320293 -7.2
L 231.912469 -7.2
L 231.504646 -7.2
L 231.096822 -7.2
L 230.689 -7.2
L 230.281172 -7.2
L 229.87335 -7.2
L 229.465527 -7.2
L 229.057703 -7.2
L 228.649879 -7.2
L 228.242057 -7.2
L 227.834229 -7.2
L 227.426408 -7.2
L 227.018584 -7.2
L 226.61076 -7.2
L 226.202936 -7.2
L 225.795112 -7.2
L 225.387287 -7.2
L 224.979465 -7.2
L 224.571637 -7.2
L 224.163817 -7.2
L 223.755993 -7.2
L 223.34817 -7.2
L 222.940344 -7.2
L 222.532522 -7.2
L 222.124695 -7.2
L 221.716874 -7.2
L 221.309049 -7.2
L 220.901222 -7.2
L 220.493401 -7.2
L 220.085576 -7.2
L 219.677752 -7.2
L 219.269927 -7.2
L 218.862104 -7.2
L 218.454279 -7.2
L 218.046458 -7.2
L 217.63863 -7.2
L 217.230809 -7.2
L 216.822985 -7.2
L 216.415161 -7.2
L 216.007336 -7.2
L 215.599515 -7.2
L 215.191687 -7.2
L 214.783867 -7.2
L 214.376042 -7.2
L 213.968218 -7.2
L 213.560393 -7.2
L 213.152572 -7.2
L 212.744744 -7.2
L 212.336924 -7.2
L 211.929099 -7.2
L 211.521275 -7.2
L 211.11345 -7.2
L 210.705626 -7.2
L 210.297802 -7.2
L 209.889981 -7.2
L 209.482153 -7.2
L 209.074332 -7.2
L 208.666507 -7.2
L 208.258684 -7.2
L 207.850859 -7.2
L 207.443034 -7.2
L 207.03521 -7.2
L 206.627385 -7.2
L 206.219565 -7.2
L 205.811737 -7.2
L 205.403916 -7.2
L 204.996088 -7.2
L 204.58827 -7.2
L 204.180443 -7.2
L 203.772619 -7.2
L 203.364797 -7.2
L 202.956973 -7.2
L 202.549145 -7.2
L 202.141328 -7.2
L 201.7335 -7.2
L 201.325676 -7.2
L 200.917854 -7.2
L 200.51003 -7.2
L 200.102202 -7.2
L 199.694379 -7.2
L 199.286557 -7.2
L 198.878733 -7.2
L 198.470905 -7.2
L 198.063087 -7.2
L 197.65526 -7.2
L 197.247436 -7.2
L 196.839614 -7.2
L 196.43179 -7.2
L 196.023962 -7.2
L 195.616145 -7.2
L 195.208317 -7.2
L 194.800493 -7.2
L 194.392671 -7.2
L 193.984843 -7.2
L 193.577019 -7.2
L 193.169198 -7.2
L 192.761374 -7.2
L 192.353546 -7.2
L 191.945728 -7.2
L 191.5379 -7.2
L 191.130077 -7.2
L 190.722255 -7.2
L 190.314431 -7.2
L 189.906603 -7.2
L 189.498785 -7.2
L 189.090958 -7.2
L 188.683134 -7.2
L 188.275312 -7.2
L 187.867488 -7.2
L 187.45966 -7.2
L 187.051843 -7.2
L 186.644015 -7.2
L 186.236191 -7.2
L 185.828369 -7.2
L 185.420545 -7.2
L 185.012718 -7.2
L 184.604894 -7.2
L 184.197072 -7.2
L 183.789248 -7.2
L 183.38142 -7.2
L 182.973603 -7.2
L 182.565775 -7.2
L 182.157951 -7.2
L 181.750129 -7.2
L 181.342301 -7.2
L 180.934477 -7.2
L 180.526656 -7.2
L 180.118832 -7.2
L 179.711004 -7.2
L 179.303186 -7.2
L 178.895358 -7.2
L 178.487535 -7.2
L 178.079713 -7.2
L 177.671889 -7.2
L 177.264061 -7.2
L 176.856243 -7.2
L 176.448416 -7.2
L 176.040592 -7.2
L 175.63277 -7.2
L 175.224946 -7.2
L 174.817118 -7.2
L 174.409301 -7.2
L 174.001473 -7.2
L 173.593649 -7.2
L 173.185827 -7.2
L 172.778003 -7.2
L 172.370175 -7.2
L 171.962358 -7.2
L 171.55453 -7.2
L 171.146702 -7.2
L 170.738882 -7.2
L 170.331058 -7.2
L 169.923235 -7.2
L 169.515407 -7.2
L 169.107587 -7.2
L 168.699759 -7.2
L 168.291935 -7.2
L 167.884116 -7.2
L 167.476292 -7.2
L 167.068464 -7.2
L 166.660644 -7.2
L 166.252816 -7.2
L 165.844993 -7.2
L 165.437173 -7.2
L 165.029349 -7.2
L 164.621521 -7.2
L 164.213701 -7.2
L 163.805873 -7.2
L 163.39805 -7.2
L 162.99023 -7.2
L 162.582406 -7.2
L 162.174578 -7.2
L 161.766758 -7.2
L 161.358931 -7.2
L 160.951103 -7.2
L 160.543283 -7.2
L 160.135459 -7.2
L 159.727635 -7.2
L 159.319816 -7.2
L 158.911988 -7.2
L 158.50416 -7.2
L 158.09634 -7.2
L 157.688516 -7.2
L 157.280693 -7.2
L 156.872873 -7.2
L 156.465045 -7.2
L 156.057217 -7.2
L 155.649393 -7.2
L 155.241574 -7.2
L 154.83375 -7.2
L 154.425922 -7.2
L 154.018102 -7.2
L 153.610274 -7.2
L 153.20245 -7.2
L 152.794631 -7.2
L 152.386807 -7.2
L 151.978979 -7.2
L 151.571159 -7.2
L 151.163331 -7.2
L 150.755508 -7.2
L 150.347688 -7.2
L 149.939864 -7.2
L 149.532036 -7.2
L 149.124216 -7.2
L 148.716389 -7.2
L 148.308561 -7.2
L 147.900741 -7.2
L 147.492917 -7.2
L 147.085093 -7.2
L 146.677274 -7.2
L 146.269446 -7.2
L 145.861618 -7.2
L 145.453798 -7.2
L 145.045974 -7.2
L 144.638151 -7.2
L 144.230331 -7.2
L 143.822503 -7.2
L 143.414675 -7.2
L 143.006855 -7.2
L 142.599031 -7.2
L 142.191208 -7.2
L 141.783388 -7.2
L 141.37556 -7.2
L 140.967732 -7.2
L 140.559908 -7.2
L 140.152089 -7.2
L 139.744265 -7.2
L 139.336437 -7.2
L 138.928617 -7.2
L 138.520789 -7.2
L 138.112966 -7.2
L 137.705146 -7.2
L 137.297322 -7.2
L 136.889494 -7.2
L 136.481674 -7.2
L 136.073847 -7.2
L 135.666019 -7.2
L 135.258199 -7.2
L 134.850379 -7.2
L 134.442551 -7.2
L 134.034732 -7.2
L 133.626904 -7.2
L 133.219076 -7.2
L 132.811256 -7.2
L 132.403428 -7.2
L 131.995608 -7.2
L 131.587789 -7.2
L 131.179961 -7.2
L 130.772133 -7.2
L 130.364313 -7.2
L 129.956493 -7.2
L 129.548666 -7.2
L 129.140846 -7.2
L 128.733018 -7.2
L 128.32519 -7.2
L 127.91737 -7.2
L 127.509543 -7.2
L 127.101723 -7.2
L 126.693903 -7.2
L 126.286075 -7.2
L 125.878247 -7.2
L 125.470419 -7.2
L 125.0626 -7.2
L 124.65478 -7.2
L 124.246952 -7.2
L 123.839132 -7.2
L 123.431304 -7.2
L 123.023477 -7.2
L 122.615657 -7.2
L 122.207837 -7.2
L 121.800009 -7.2
L 121.392189 -7.2
L 120.984362 -7.2
L 120.576534 -7.2
L 120.168714 -7.2
L 119.760894 -7.2
L 119.353066 -7.2
L 118.945247 -7.2
L 118.537419 -7.2
L 118.129591 -7.2
L 117.721771 -7.2
L 117.313951 -7.2
L 116.906124 -7.2
L 116.498304 -7.2
L 116.090476 -7.2
L 115.682648 -7.2
L 115.274828 -7.2
L 114.867 -7.2
L 114.459181 -7.2
L 114.051361 -7.2
L 113.643533 -7.2
L 113.235705 -7.2
L 112.827885 -7.2
L 112.420058 -7.2
L 112.012238 -7.2
L 111.604418 -7.2
L 111.19659 -7.2
L 110.788762 -7.2
L 110.380935 -7.2
L 109.973115 -7.2
L 109.565295 -7.2
L 109.157467 -7.2
L 108.749647 -7.2
L 108.34182 -7.2
L 107.933992 -7.2
L 107.526172 -7.2
L 107.118352 -7.2
L 106.710524 -7.2
L 106.302705 -7.2
L 105.894877 -7.2
L 105.487049 -7.2
L 105.079229 -7.2
L 104.671409 -7.2
L 104.263581 -7.2
L 103.855762 -7.2
L 103.447934 -7.2
z
" style="stroke: #30a89c; stroke-opacity: 0.2"/>
    </defs>
    <g clip-path="url(#p915f1ce322)">
     <use xlink:href="#m5a4789e940" x="0" y="158.4" style="fill: #30a89c; fill-opacity: 0.2; stroke: #30a89c; stroke-opacity: 0.2"/>
    </g>
   </g>
   <g id="PolyCollection_3">
    <defs>
     <path id="m01fbcd385b" d="M 188.241322 -7.2
L 188.241322 -11.192292
L 188.64915 -11.274561
L 189.05697 -11.358436
L 189.464798 -11.44395
L 189.872618 -11.531129
L 190.280437 -11.620005
L 190.688265 -11.710611
L 191.096093 -11.802974
L 191.503913 -11.897123
L 191.911741 -11.993097
L 192.31956 -12.090923
L 192.72738 -12.190635
L 193.135208 -12.292265
L 193.543036 -12.395851
L 193.950856 -12.501423
L 194.358683 -12.609019
L 194.766503 -12.718667
L 195.174323 -12.830412
L 195.582151 -12.944288
L 195.989979 -13.06033
L 196.397807 -13.178576
L 196.805626 -13.299059
L 197.213446 -13.421824
L 197.621274 -13.546911
L 198.029094 -13.67435
L 198.436922 -13.804194
L 198.844749 -13.936476
L 199.252569 -14.071237
L 199.660389 -14.208516
L 200.068217 -14.348366
L 200.476037 -14.490819
L 200.883864 -14.635927
L 201.291692 -14.783729
L 201.699512 -14.934262
L 202.10734 -15.087588
L 202.51516 -15.24374
L 202.922979 -15.402764
L 203.330807 -15.564718
L 203.738635 -15.729642
L 204.146455 -15.897582
L 204.554283 -16.068592
L 204.962102 -16.242712
L 205.369922 -16.420002
L 205.77775 -16.600513
L 206.185578 -16.784289
L 206.593398 -16.971378
L 207.001226 -17.161847
L 207.409045 -17.355735
L 207.816865 -17.553096
L 208.224693 -17.753997
L 208.632521 -17.958484
L 209.040341 -18.166609
L 209.448168 -18.378433
L 209.855988 -18.594001
L 210.263808 -18.813384
L 210.671636 -19.03664
L 211.079464 -19.26382
L 211.487291 -19.494978
L 211.895111 -19.73018
L 212.302931 -19.969486
L 212.710759 -20.212956
L 213.118579 -20.460642
L 213.526406 -20.712623
L 213.934234 -20.96895
L 214.342054 -21.229681
L 214.749882 -21.494882
L 215.157702 -21.764619
L 215.565521 -22.038956
L 215.973349 -22.317962
L 216.381177 -22.601686
L 216.788997 -22.890207
L 217.196817 -23.183589
L 217.604645 -23.481898
L 218.012464 -23.785189
L 218.420292 -24.093548
L 218.82812 -24.407037
L 219.23594 -24.72571
L 219.643768 -25.049645
L 220.051587 -25.378912
L 220.459407 -25.713578
L 220.867235 -26.053716
L 221.275063 -26.399386
L 221.682883 -26.750665
L 222.09071 -27.107624
L 222.498534 -27.470325
L 222.906354 -27.838842
L 223.314178 -28.213247
L 223.722006 -28.593619
L 224.129825 -28.98001
L 224.537653 -29.3725
L 224.945477 -29.771168
L 225.353297 -30.176061
L 225.761121 -30.587281
L 226.168948 -31.004875
L 226.576776 -31.42893
L 226.984596 -31.859502
L 227.39242 -32.296662
L 227.800244 -32.740491
L 228.208063 -33.191051
L 228.615891 -33.648428
L 229.023719 -34.112673
L 229.431539 -34.583844
L 229.839363 -35.062025
L 230.247187 -35.547299
L 230.655006 -36.039703
L 231.062834 -36.539336
L 231.470662 -37.046237
L 231.878482 -37.560484
L 232.286306 -38.082131
L 232.694129 -38.611261
L 233.101949 -39.147921
L 233.509777 -39.692185
L 233.917605 -40.244104
L 234.325425 -40.803743
L 234.733252 -41.371157
L 235.141076 -41.94642
L 235.548896 -42.529554
L 235.95672 -43.120649
L 236.364548 -43.719744
L 236.772367 -44.326894
L 237.180195 -44.942151
L 237.588019 -45.565563
L 237.995839 -46.197163
L 238.403663 -46.83702
L 238.811491 -47.485164
L 239.21931 -48.141642
L 239.627138 -48.806486
L 240.034962 -49.479736
L 240.442782 -50.161424
L 240.850606 -50.851592
L 241.258433 -51.550275
L 241.666261 -52.257485
L 242.074081 -52.973236
L 242.481905 -53.697574
L 242.889729 -54.4305
L 243.297548 -55.17204
L 243.705376 -55.922201
L 244.113204 -56.681006
L 244.521024 -57.448424
L 244.928848 -58.224498
L 245.336671 -59.00919
L 245.744491 -59.802526
L 246.152319 -60.604475
L 246.560147 -61.415046
L 246.967967 -62.234178
L 247.375795 -63.061894
L 247.783618 -63.898138
L 248.191438 -64.74287
L 248.599262 -65.596074
L 249.00709 -66.457716
L 249.41491 -67.327713
L 249.822737 -68.206058
L 250.230561 -69.09266
L 250.638381 -69.987438
L 251.046205 -70.890356
L 251.454033 -71.801344
L 251.861852 -72.72027
L 252.26968 -73.647115
L 252.677504 -74.581737
L 253.085324 -75.52401
L 253.493148 -76.473871
L 253.900975 -77.431208
L 254.308795 -78.39585
L 254.716623 -79.367731
L 255.124447 -80.34666
L 255.532271 -81.332489
L 255.94009 -82.325074
L 256.347918 -83.324276
L 256.755746 -84.329916
L 257.163566 -85.341778
L 257.571394 -86.359701
L 257.979214 -87.383477
L 258.387037 -88.41291
L 258.794861 -89.447767
L 259.202689 -90.487852
L 259.610509 -91.532872
L 260.018337 -92.582639
L 260.426156 -93.636877
L 260.83398 -94.695296
L 261.241804 -95.757654
L 261.649632 -96.823652
L 262.057452 -97.892972
L 262.465279 -98.96533
L 262.873099 -100.040391
L 263.280923 -101.117814
L 263.688747 -102.197261
L 264.096575 -103.278409
L 264.504394 -104.360818
L 264.912222 -105.444205
L 265.320042 -106.528091
L 265.727866 -107.612113
L 266.13569 -108.695861
L 266.543518 -109.778889
L 266.951337 -110.860765
L 267.359165 -111.941029
L 267.766993 -113.01924
L 268.174809 -114.094869
L 268.582637 -115.167476
L 268.99046 -116.236529
L 269.39828 -117.301523
L 269.806108 -118.361915
L 270.213936 -119.417193
L 270.621756 -120.46677
L 271.029579 -121.5101
L 271.437403 -122.546596
L 271.845231 -123.575686
L 272.253051 -124.596733
L 272.660879 -125.609162
L 273.068698 -126.612312
L 273.476526 -127.605549
L 273.884346 -128.588254
L 274.292174 -129.559767
L 274.699994 -130.519349
L 275.107821 -131.466416
L 275.515641 -132.40023
L 275.923461 -133.320088
L 276.331289 -134.22532
L 276.739117 -135.115205
L 277.146936 -135.988971
L 277.554764 -136.845965
L 277.962584 -137.685405
L 278.370412 -138.506581
L 278.778232 -139.308719
L 279.18606 -140.091132
L 279.593879 -140.853014
L 280.001707 -141.59366
L 280.409535 -142.312317
L 280.817347 -143.008227
L 281.225183 -143.680653
L 281.633002 -144.328875
L 282.040822 -144.952162
L 282.44865 -145.549759
L 282.856478 -146.121005
L 283.264298 -146.665171
L 283.672117 -147.181561
L 284.079945 -147.669549
L 284.487765 -148.128431
L 284.895593 -148.557588
L 285.303421 -148.95643
L 285.71124 -149.324371
L 286.119068 -149.660829
L 286.526888 -149.965314
L 286.934716 -150.237328
L 287.342536 -150.4764
L 287.750364 -150.682142
L 288.158183 -150.854203
L 288.566003 -150.992232
L 288.973831 -151.096004
L 289.381659 -151.165315
L 289.789479 -151.199983
L 290.197306 -151.2
L 290.605126 -151.165306
L 291.012954 -151.096022
L 291.420774 -150.992258
L 291.828602 -150.854195
L 292.236421 -150.682159
L 292.644249 -150.476408
L 293.052069 -150.23732
L 293.459897 -149.965306
L 293.867725 -149.660829
L 294.275544 -149.324354
L 294.683372 -148.956421
L 295.091192 -148.55758
L 295.499012 -148.128413
L 295.90684 -147.669532
L 296.314659 -147.181561
L 296.722487 -146.665162
L 297.130315 -146.120988
L 297.538135 -145.549759
L 297.945963 -144.952136
L 298.353783 -144.328866
L 298.76161 -143.680653
L 299.16943 -143.00821
L 299.577258 -142.312308
L 299.985078 -141.59366
L 300.392906 -140.853005
L 300.800725 -140.091123
L 301.208545 -139.308719
L 301.616373 -138.506572
L 302.024201 -137.685397
L 302.432021 -136.845947
L 302.839848 -135.988971
L 303.247668 -135.115188
L 303.655496 -134.225312
L 304.063316 -133.32008
L 304.471144 -132.400204
L 304.878963 -131.466399
L 305.286791 -130.51934
L 305.694611 -129.559741
L 306.102439 -128.588229
L 306.510267 -127.605524
L 306.918087 -126.612295
L 307.325906 -125.609136
L 307.733734 -124.596715
L 308.141562 -123.575669
L 308.549382 -122.546571
L 308.957202 -121.510082
L 309.365021 -120.466762
L 309.772857 -119.417175
L 310.180677 -118.361907
L 310.588497 -117.301514
L 310.996325 -116.236512
L 311.404152 -115.167458
L 311.811972 -114.094852
L 312.219792 -113.019215
L 312.62762 -111.94102
L 313.035448 -110.860748
L 313.443267 -109.778871
L 313.851087 -108.695853
L 314.258915 -107.612105
L 314.666743 -106.528091
L 315.074563 -105.444188
L 315.482391 -104.360826
L 315.89021 -103.278392
L 316.298038 -102.197253
L 316.705858 -101.117796
L 317.113678 -100.040366
L 317.521506 -98.965321
L 317.929333 -97.892963
L 318.337153 -96.823644
L 318.744973 -95.757646
L 319.152809 -94.695287
L 319.560629 -93.636869
L 319.968448 -92.582622
L 320.376276 -91.532855
L 320.784104 -90.487809
L 321.191924 -89.44775
L 321.599744 -88.412876
L 322.007563 -87.38346
L 322.415399 -86.359667
L 322.823219 -85.341753
L 323.231039 -84.329881
L 323.638867 -83.324267
L 324.046695 -82.325056
L 324.454514 -81.33248
L 324.862334 -80.346642
L 325.270162 -79.367714
L 325.67799 -78.39585
L 326.085809 -77.431195
L 326.493629 -76.473871
L 326.901465 -75.523997
L 327.309285 -74.581702
L 327.717105 -73.647098
L 328.124924 -72.72027
L 328.53276 -71.801322
L 328.94058 -70.890348
L 329.3484 -69.987425
L 329.75622 -69.092639
L 330.164048 -68.206045
L 330.571875 -67.327705
L 330.979695 -66.457703
L 331.387515 -65.596074
L 331.795351 -64.742853
L 332.203171 -63.898116
L 332.61099 -63.061877
L 333.018818 -62.234161
L 333.426646 -61.415024
L 333.834466 -60.604466
L 334.242286 -59.802526
L 334.650113 -59.009182
L 335.057941 -58.224481
L 335.465761 -57.448411
L 335.873581 -56.680993
L 336.281417 -55.922184
L 336.689237 -55.172031
L 337.097056 -54.430488
L 337.504876 -53.697566
L 337.912704 -52.973223
L 338.320532 -52.257464
L 338.728352 -51.550258
L 339.136171 -50.851592
L 339.543999 -50.16142
L 339.951827 -49.479727
L 340.359647 -48.806473
L 340.767467 -48.141642
L 341.175302 -47.485147
L 341.583122 -46.837011
L 341.990942 -46.197154
L 342.398762 -45.565559
L 342.806598 -44.942139
L 343.214417 -44.32689
L 343.622237 -43.719735
L 344.030057 -43.120649
L 344.437893 -42.529541
L 344.845713 -41.946407
L 345.253532 -41.37115
L 345.661368 -40.803735
L 346.069188 -40.244091
L 346.477008 -39.692183
L 346.884828 -39.147921
L 347.292647 -38.611252
L 347.700483 -38.082125
L 348.108303 -37.560473
L 348.516123 -37.046231
L 348.923959 -36.539325
L 349.331779 -36.0397
L 349.739598 -35.547294
L 350.147418 -35.062025
L 350.555238 -34.583835
L 350.963074 -34.112653
L 351.370894 -33.648416
L 351.778713 -33.191051
L 352.186549 -32.740486
L 352.594369 -32.296657
L 353.002189 -31.859494
L 353.410009 -31.428924
L 353.817828 -31.004869
L 354.225664 -30.587275
L 354.633484 -30.176063
L 355.041304 -29.771161
L 355.44914 -29.372492
L 355.85696 -28.980002
L 356.264779 -28.593613
L 356.672599 -28.213247
L 357.080435 -27.838836
L 357.488255 -27.470319
L 357.896075 -27.107618
L 358.30391 -26.750659
L 358.71173 -26.399382
L 359.11955 -26.053703
L 359.52737 -25.713578
L 359.93519 -25.378906
L 360.343009 -25.049639
L 360.750845 -24.725697
L 361.158665 -24.40703
L 361.566501 -24.093542
L 361.974321 -23.785181
L 362.38214 -23.481887
L 362.78996 -23.183589
L 363.19778 -22.890203
L 363.6056 -22.601681
L 364.013436 -22.317949
L 364.421255 -22.038956
L 364.829091 -21.764614
L 365.236911 -21.494877
L 365.644731 -21.22967
L 366.052551 -20.968944
L 366.46037 -20.712618
L 366.868206 -20.460639
L 367.276026 -20.212947
L 367.683846 -19.969486
L 368.091682 -19.730176
L 368.499502 -19.49497
L 368.907321 -19.263811
L 369.315141 -19.03664
L 369.722961 -18.813384
L 370.130797 -18.593998
L 370.538617 -18.378423
L 370.946453 -18.166605
L 371.354272 -17.95848
L 371.762092 -17.753993
L 372.169912 -17.553096
L 372.577732 -17.355732
L 372.985551 -17.161843
L 373.393387 -16.971374
L 373.801207 -16.784282
L 374.209043 -16.600508
L 374.616863 -16.420002
L 375.024683 -16.242709
L 375.432502 -16.068586
L 375.840322 -15.89758
L 376.248142 -15.72964
L 376.655978 -15.564715
L 377.063797 -15.402764
L 377.471633 -15.243737
L 377.879453 -15.087585
L 378.287273 -14.93426
L 378.695093 -14.783722
L 379.102912 -14.635924
L 379.510732 -14.490819
L 379.918568 -14.348364
L 380.326388 -14.208516
L 380.734224 -14.071235
L 381.142044 -13.936474
L 381.549863 -13.804192
L 381.957683 -13.67435
L 382.365503 -13.546908
L 382.773339 -13.421822
L 383.181159 -13.299056
L 383.588978 -13.178571
L 383.996814 -13.060328
L 384.404634 -12.944286
L 384.812454 -12.830412
L 385.220274 -12.718665
L 385.628093 -12.609016
L 386.035929 -12.501421
L 386.443749 -12.39585
L 386.851585 -12.292263
L 387.259405 -12.190635
L 387.667225 -12.090921
L 388.075044 -11.993096
L 388.482864 -11.897122
L 388.890684 -11.802972
L 389.29852 -11.71061
L 389.70634 -11.620005
L 390.114175 -11.531127
L 390.521995 -11.443949
L 390.929815 -11.358435
L 391.337635 -11.274559
L 391.745455 -11.192292
L 391.745455 -7.2
L 391.745455 -7.2
L 391.337635 -7.2
L 390.929815 -7.2
L 390.521995 -7.2
L 390.114175 -7.2
L 389.70634 -7.2
L 389.29852 -7.2
L 388.890684 -7.2
L 388.482864 -7.2
L 388.075044 -7.2
L 387.667225 -7.2
L 387.259405 -7.2
L 386.851585 -7.2
L 386.443749 -7.2
L 386.035929 -7.2
L 385.628093 -7.2
L 385.220274 -7.2
L 384.812454 -7.2
L 384.404634 -7.2
L 383.996814 -7.2
L 383.588978 -7.2
L 383.181159 -7.2
L 382.773339 -7.2
L 382.365503 -7.2
L 381.957683 -7.2
L 381.549863 -7.2
L 381.142044 -7.2
L 380.734224 -7.2
L 380.326388 -7.2
L 379.918568 -7.2
L 379.510732 -7.2
L 379.102912 -7.2
L 378.695093 -7.2
L 378.287273 -7.2
L 377.879453 -7.2
L 377.471633 -7.2
L 377.063797 -7.2
L 376.655978 -7.2
L 376.248142 -7.2
L 375.840322 -7.2
L 375.432502 -7.2
L 375.024683 -7.2
L 374.616863 -7.2
L 374.209043 -7.2
L 373.801207 -7.2
L 373.393387 -7.2
L 372.985551 -7.2
L 372.577732 -7.2
L 372.169912 -7.2
L 371.762092 -7.2
L 371.354272 -7.2
L 370.946453 -7.2
L 370.538617 -7.2
L 370.130797 -7.2
L 369.722961 -7.2
L 369.315141 -7.2
L 368.907321 -7.2
L 368.499502 -7.2
L 368.091682 -7.2
L 367.683846 -7.2
L 367.276026 -7.2
L 366.868206 -7.2
L 366.46037 -7.2
L 366.052551 -7.2
L 365.644731 -7.2
L 365.236911 -7.2
L 364.829091 -7.2
L 364.421255 -7.2
L 364.013436 -7.2
L 363.6056 -7.2
L 363.19778 -7.2
L 362.78996 -7.2
L 362.38214 -7.2
L 361.974321 -7.2
L 361.566501 -7.2
L 361.158665 -7.2
L 360.750845 -7.2
L 360.343009 -7.2
L 359.93519 -7.2
L 359.52737 -7.2
L 359.11955 -7.2
L 358.71173 -7.2
L 358.30391 -7.2
L 357.896075 -7.2
L 357.488255 -7.2
L 357.080435 -7.2
L 356.672599 -7.2
L 356.264779 -7.2
L 355.85696 -7.2
L 355.44914 -7.2
L 355.041304 -7.2
L 354.633484 -7.2
L 354.225664 -7.2
L 353.817828 -7.2
L 353.410009 -7.2
L 353.002189 -7.2
L 352.594369 -7.2
L 352.186549 -7.2
L 351.778713 -7.2
L 351.370894 -7.2
L 350.963074 -7.2
L 350.555238 -7.2
L 350.147418 -7.2
L 349.739598 -7.2
L 349.331779 -7.2
L 348.923959 -7.2
L 348.516123 -7.2
L 348.108303 -7.2
L 347.700483 -7.2
L 347.292647 -7.2
L 346.884828 -7.2
L 346.477008 -7.2
L 346.069188 -7.2
L 345.661368 -7.2
L 345.253532 -7.2
L 344.845713 -7.2
L 344.437893 -7.2
L 344.030057 -7.2
L 343.622237 -7.2
L 343.214417 -7.2
L 342.806598 -7.2
L 342.398762 -7.2
L 341.990942 -7.2
L 341.583122 -7.2
L 341.175302 -7.2
L 340.767467 -7.2
L 340.359647 -7.2
L 339.951827 -7.2
L 339.543999 -7.2
L 339.136171 -7.2
L 338.728352 -7.2
L 338.320532 -7.2
L 337.912704 -7.2
L 337.504876 -7.2
L 337.097056 -7.2
L 336.689237 -7.2
L 336.281417 -7.2
L 335.873581 -7.2
L 335.465761 -7.2
L 335.057941 -7.2
L 334.650113 -7.2
L 334.242286 -7.2
L 333.834466 -7.2
L 333.426646 -7.2
L 333.018818 -7.2
L 332.61099 -7.2
L 332.203171 -7.2
L 331.795351 -7.2
L 331.387515 -7.2
L 330.979695 -7.2
L 330.571875 -7.2
L 330.164048 -7.2
L 329.75622 -7.2
L 329.3484 -7.2
L 328.94058 -7.2
L 328.53276 -7.2
L 328.124924 -7.2
L 327.717105 -7.2
L 327.309285 -7.2
L 326.901465 -7.2
L 326.493629 -7.2
L 326.085809 -7.2
L 325.67799 -7.2
L 325.270162 -7.2
L 324.862334 -7.2
L 324.454514 -7.2
L 324.046695 -7.2
L 323.638867 -7.2
L 323.231039 -7.2
L 322.823219 -7.2
L 322.415399 -7.2
L 322.007563 -7.2
L 321.599744 -7.2
L 321.191924 -7.2
L 320.784104 -7.2
L 320.376276 -7.2
L 319.968448 -7.2
L 319.560629 -7.2
L 319.152809 -7.2
L 318.744973 -7.2
L 318.337153 -7.2
L 317.929333 -7.2
L 317.521506 -7.2
L 317.113678 -7.2
L 316.705858 -7.2
L 316.298038 -7.2
L 315.89021 -7.2
L 315.482391 -7.2
L 315.074563 -7.2
L 314.666743 -7.2
L 314.258915 -7.2
L 313.851087 -7.2
L 313.443267 -7.2
L 313.035448 -7.2
L 312.62762 -7.2
L 312.219792 -7.2
L 311.811972 -7.2
L 311.404152 -7.2
L 310.996325 -7.2
L 310.588497 -7.2
L 310.180677 -7.2
L 309.772857 -7.2
L 309.365021 -7.2
L 308.957202 -7.2
L 308.549382 -7.2
L 308.141562 -7.2
L 307.733734 -7.2
L 307.325906 -7.2
L 306.918087 -7.2
L 306.510267 -7.2
L 306.102439 -7.2
L 305.694611 -7.2
L 305.286791 -7.2
L 304.878963 -7.2
L 304.471144 -7.2
L 304.063316 -7.2
L 303.655496 -7.2
L 303.247668 -7.2
L 302.839848 -7.2
L 302.432021 -7.2
L 302.024201 -7.2
L 301.616373 -7.2
L 301.208545 -7.2
L 300.800725 -7.2
L 300.392906 -7.2
L 299.985078 -7.2
L 299.577258 -7.2
L 299.16943 -7.2
L 298.76161 -7.2
L 298.353783 -7.2
L 297.945963 -7.2
L 297.538135 -7.2
L 297.130315 -7.2
L 296.722487 -7.2
L 296.314659 -7.2
L 295.90684 -7.2
L 295.499012 -7.2
L 295.091192 -7.2
L 294.683372 -7.2
L 294.275544 -7.2
L 293.867725 -7.2
L 293.459897 -7.2
L 293.052069 -7.2
L 292.644249 -7.2
L 292.236421 -7.2
L 291.828602 -7.2
L 291.420774 -7.2
L 291.012954 -7.2
L 290.605126 -7.2
L 290.197306 -7.2
L 289.789479 -7.2
L 289.381659 -7.2
L 288.973831 -7.2
L 288.566003 -7.2
L 288.158183 -7.2
L 287.750364 -7.2
L 287.342536 -7.2
L 286.934716 -7.2
L 286.526888 -7.2
L 286.119068 -7.2
L 285.71124 -7.2
L 285.303421 -7.2
L 284.895593 -7.2
L 284.487765 -7.2
L 284.079945 -7.2
L 283.672117 -7.2
L 283.264298 -7.2
L 282.856478 -7.2
L 282.44865 -7.2
L 282.040822 -7.2
L 281.633002 -7.2
L 281.225183 -7.2
L 280.817347 -7.2
L 280.409535 -7.2
L 280.001707 -7.2
L 279.593879 -7.2
L 279.18606 -7.2
L 278.778232 -7.2
L 278.370412 -7.2
L 277.962584 -7.2
L 277.554764 -7.2
L 277.146936 -7.2
L 276.739117 -7.2
L 276.331289 -7.2
L 275.923461 -7.2
L 275.515641 -7.2
L 275.107821 -7.2
L 274.699994 -7.2
L 274.292174 -7.2
L 273.884346 -7.2
L 273.476526 -7.2
L 273.068698 -7.2
L 272.660879 -7.2
L 272.253051 -7.2
L 271.845231 -7.2
L 271.437403 -7.2
L 271.029579 -7.2
L 270.621756 -7.2
L 270.213936 -7.2
L 269.806108 -7.2
L 269.39828 -7.2
L 268.99046 -7.2
L 268.582637 -7.2
L 268.174809 -7.2
L 267.766993 -7.2
L 267.359165 -7.2
L 266.951337 -7.2
L 266.543518 -7.2
L 266.13569 -7.2
L 265.727866 -7.2
L 265.320042 -7.2
L 264.912222 -7.2
L 264.504394 -7.2
L 264.096575 -7.2
L 263.688747 -7.2
L 263.280923 -7.2
L 262.873099 -7.2
L 262.465279 -7.2
L 262.057452 -7.2
L 261.649632 -7.2
L 261.241804 -7.2
L 260.83398 -7.2
L 260.426156 -7.2
L 260.018337 -7.2
L 259.610509 -7.2
L 259.202689 -7.2
L 258.794861 -7.2
L 258.387037 -7.2
L 257.979214 -7.2
L 257.571394 -7.2
L 257.163566 -7.2
L 256.755746 -7.2
L 256.347918 -7.2
L 255.94009 -7.2
L 255.532271 -7.2
L 255.124447 -7.2
L 254.716623 -7.2
L 254.308795 -7.2
L 253.900975 -7.2
L 253.493148 -7.2
L 253.085324 -7.2
L 252.677504 -7.2
L 252.26968 -7.2
L 251.861852 -7.2
L 251.454033 -7.2
L 251.046205 -7.2
L 250.638381 -7.2
L 250.230561 -7.2
L 249.822737 -7.2
L 249.41491 -7.2
L 249.00709 -7.2
L 248.599262 -7.2
L 248.191438 -7.2
L 247.783618 -7.2
L 247.375795 -7.2
L 246.967967 -7.2
L 246.560147 -7.2
L 246.152319 -7.2
L 245.744491 -7.2
L 245.336671 -7.2
L 244.928848 -7.2
L 244.521024 -7.2
L 244.113204 -7.2
L 243.705376 -7.2
L 243.297548 -7.2
L 242.889729 -7.2
L 242.481905 -7.2
L 242.074081 -7.2
L 241.666261 -7.2
L 241.258433 -7.2
L 240.850606 -7.2
L 240.442782 -7.2
L 240.034962 -7.2
L 239.627138 -7.2
L 239.21931 -7.2
L 238.811491 -7.2
L 238.403663 -7.2
L 237.995839 -7.2
L 237.588019 -7.2
L 237.180195 -7.2
L 236.772367 -7.2
L 236.364548 -7.2
L 235.95672 -7.2
L 235.548896 -7.2
L 235.141076 -7.2
L 234.733252 -7.2
L 234.325425 -7.2
L 233.917605 -7.2
L 233.509777 -7.2
L 233.101949 -7.2
L 232.694129 -7.2
L 232.286306 -7.2
L 231.878482 -7.2
L 231.470662 -7.2
L 231.062834 -7.2
L 230.655006 -7.2
L 230.247187 -7.2
L 229.839363 -7.2
L 229.431539 -7.2
L 229.023719 -7.2
L 228.615891 -7.2
L 228.208063 -7.2
L 227.800244 -7.2
L 227.39242 -7.2
L 226.984596 -7.2
L 226.576776 -7.2
L 226.168948 -7.2
L 225.761121 -7.2
L 225.353297 -7.2
L 224.945477 -7.2
L 224.537653 -7.2
L 224.129825 -7.2
L 223.722006 -7.2
L 223.314178 -7.2
L 222.906354 -7.2
L 222.498534 -7.2
L 222.09071 -7.2
L 221.682883 -7.2
L 221.275063 -7.2
L 220.867235 -7.2
L 220.459407 -7.2
L 220.051587 -7.2
L 219.643768 -7.2
L 219.23594 -7.2
L 218.82812 -7.2
L 218.420292 -7.2
L 218.012464 -7.2
L 217.604645 -7.2
L 217.196817 -7.2
L 216.788997 -7.2
L 216.381177 -7.2
L 215.973349 -7.2
L 215.565521 -7.2
L 215.157702 -7.2
L 214.749882 -7.2
L 214.342054 -7.2
L 213.934234 -7.2
L 213.526406 -7.2
L 213.118579 -7.2
L 212.710759 -7.2
L 212.302931 -7.2
L 211.895111 -7.2
L 211.487291 -7.2
L 211.079464 -7.2
L 210.671636 -7.2
L 210.263808 -7.2
L 209.855988 -7.2
L 209.448168 -7.2
L 209.040341 -7.2
L 208.632521 -7.2
L 208.224693 -7.2
L 207.816865 -7.2
L 207.409045 -7.2
L 207.001226 -7.2
L 206.593398 -7.2
L 206.185578 -7.2
L 205.77775 -7.2
L 205.369922 -7.2
L 204.962102 -7.2
L 204.554283 -7.2
L 204.146455 -7.2
L 203.738635 -7.2
L 203.330807 -7.2
L 202.922979 -7.2
L 202.51516 -7.2
L 202.10734 -7.2
L 201.699512 -7.2
L 201.291692 -7.2
L 200.883864 -7.2
L 200.476037 -7.2
L 200.068217 -7.2
L 199.660389 -7.2
L 199.252569 -7.2
L 198.844749 -7.2
L 198.436922 -7.2
L 198.029094 -7.2
L 197.621274 -7.2
L 197.213446 -7.2
L 196.805626 -7.2
L 196.397807 -7.2
L 195.989979 -7.2
L 195.582151 -7.2
L 195.174323 -7.2
L 194.766503 -7.2
L 194.358683 -7.2
L 193.950856 -7.2
L 193.543036 -7.2
L 193.135208 -7.2
L 192.72738 -7.2
L 192.31956 -7.2
L 191.911741 -7.2
L 191.503913 -7.2
L 191.096093 -7.2
L 190.688265 -7.2
L 190.280437 -7.2
L 189.872618 -7.2
L 189.464798 -7.2
L 189.05697 -7.2
L 188.64915 -7.2
L 188.241322 -7.2
z
" style="stroke: #9c26b0; stroke-opacity: 0.2"/>
    </defs>
    <g clip-path="url(#p915f1ce322)">
     <use xlink:href="#m01fbcd385b" x="0" y="158.4" style="fill: #9c26b0; fill-opacity: 0.2; stroke: #9c26b0; stroke-opacity: 0.2"/>
    </g>
   </g>
   <g id="line2d_1">
    <path d="M 18.654545 147.207708
L 23.548431 146.107735
L 27.626677 144.978176
L 31.704907 143.616271
L 35.375317 142.157288
L 39.045744 140.441516
L 42.308334 138.66982
L 45.570925 136.635381
L 48.425679 134.614811
L 51.28045 132.346284
L 54.135221 129.806381
L 56.989991 126.97107
L 59.844762 123.816156
L 62.699533 120.317869
L 65.554303 116.45358
L 68.409058 112.202837
L 71.263829 107.548408
L 74.118599 102.477799
L 76.97337 96.984954
L 80.235961 90.193942
L 83.498551 82.87599
L 87.168969 74.070084
L 91.655027 62.642346
L 104.705397 28.840233
L 107.15234 23.284795
L 109.191455 19.091281
L 111.23057 15.391773
L 112.861873 12.850241
L 114.493168 10.730451
L 115.716644 9.44357
L 116.940111 8.434686
L 118.163587 7.717858
L 119.387054 7.303996
L 120.61053 7.2
L 121.833997 7.407742
L 123.057472 7.923592
L 124.280948 8.739171
L 125.504415 9.84242
L 126.727883 11.218439
L 128.359186 13.447864
L 129.990481 16.087692
L 132.029596 19.893428
L 134.068719 24.174688
L 136.515662 29.811771
L 139.778248 37.933238
L 145.079962 51.871909
L 152.012971 69.987124
L 156.091209 80.00415
L 159.761623 88.412575
L 163.024214 95.338123
L 166.286804 101.719007
L 169.141575 106.849742
L 171.996341 111.562989
L 174.851112 115.870459
L 177.705879 119.788748
L 180.560641 123.337975
L 183.415412 126.540506
L 186.270179 129.419998
L 189.124945 132.000618
L 191.979716 134.306458
L 195.242306 136.635386
L 198.504897 138.669824
L 201.767487 140.44152
L 205.030078 141.979998
L 208.700496 143.46574
L 212.778734 144.853092
L 216.856972 146.00415
L 221.343038 147.041565
L 222.158678 147.207708
L 222.158678 147.207708
" clip-path="url(#p915f1ce322)" style="fill: none; stroke: #5e97f6; stroke-width: 1.5; stroke-linecap: square"/>
   </g>
   <g id="line2d_2">
    <path d="M 103.447934 147.207708
L 108.34182 146.107735
L 112.420058 144.978176
L 116.498304 143.616271
L 120.168714 142.157288
L 123.839132 140.441516
L 127.101723 138.66982
L 130.364313 136.635381
L 133.219076 134.614811
L 136.073847 132.346284
L 138.928617 129.806381
L 141.783388 126.97107
L 144.638151 123.816156
L 147.492917 120.317869
L 150.347688 116.45358
L 153.20245 112.202837
L 156.057217 107.548408
L 158.911988 102.477799
L 161.766758 96.984954
L 165.029349 90.193942
L 168.291935 82.87599
L 171.962358 74.070084
L 176.448416 62.642346
L 189.498785 28.840233
L 191.945728 23.284795
L 193.984843 19.091281
L 196.023962 15.391773
L 197.65526 12.850241
L 199.286557 10.730451
L 200.51003 9.44357
L 201.7335 8.434686
L 202.956973 7.717858
L 204.180443 7.303996
L 205.403916 7.2
L 206.627385 7.407742
L 207.850859 7.923592
L 209.074332 8.739171
L 210.297802 9.84242
L 211.521275 11.218439
L 213.152572 13.447864
L 214.783867 16.087692
L 216.822985 19.893428
L 218.862104 24.174688
L 221.309049 29.811771
L 224.571637 37.933238
L 229.87335 51.871909
L 236.806359 69.987124
L 240.884597 80.00415
L 244.555012 88.412575
L 247.817602 95.338123
L 251.080192 101.719007
L 253.934963 106.849742
L 256.78973 111.562989
L 259.6445 115.870459
L 262.499267 119.788748
L 265.35403 123.337975
L 268.2088 126.540506
L 271.063567 129.419998
L 273.918334 132.000618
L 276.773104 134.306458
L 280.035695 136.635386
L 283.298285 138.669824
L 286.560876 140.44152
L 289.823466 141.979998
L 293.493885 143.46574
L 297.572123 144.853092
L 301.650361 146.00415
L 306.136427 147.041565
L 306.952066 147.207708
L 306.952066 147.207708
" clip-path="url(#p915f1ce322)" style="fill: none; stroke: #30a89c; stroke-width: 1.5; stroke-linecap: square"/>
   </g>
   <g id="line2d_3">
    <path d="M 188.241322 147.207708
L 193.135208 146.107735
L 197.213446 144.978176
L 201.291692 143.616271
L 204.962102 142.157288
L 208.632521 140.441516
L 211.895111 138.66982
L 215.157702 136.635381
L 218.012464 134.614811
L 220.867235 132.346284
L 223.722006 129.806381
L 226.576776 126.97107
L 229.431539 123.816156
L 232.286306 120.317869
L 235.141076 116.45358
L 237.995839 112.202837
L 240.850606 107.548408
L 243.705376 102.477799
L 246.560147 96.984954
L 249.822737 90.193942
L 253.085324 82.87599
L 256.755746 74.070084
L 261.241804 62.642346
L 274.292174 28.840233
L 276.739117 23.284795
L 278.778232 19.091281
L 280.817347 15.391773
L 282.44865 12.850241
L 284.079945 10.730451
L 285.303421 9.44357
L 286.526888 8.434686
L 287.750364 7.717858
L 288.973831 7.303996
L 290.197306 7.2
L 291.420774 7.407742
L 292.644249 7.923592
L 293.867725 8.739171
L 295.091192 9.84242
L 296.314659 11.218439
L 297.945963 13.447864
L 299.577258 16.087692
L 301.616373 19.893428
L 303.655496 24.174688
L 306.102439 29.811771
L 309.365021 37.933238
L 314.666743 51.871909
L 321.599744 69.987124
L 325.67799 80.00415
L 329.3484 88.412575
L 332.61099 95.338123
L 335.873581 101.719007
L 338.728352 106.849742
L 341.583122 111.562989
L 344.437893 115.870459
L 347.292647 119.788748
L 350.147418 123.337975
L 353.002189 126.540506
L 355.85696 129.419998
L 358.71173 132.000618
L 361.566501 134.306458
L 364.829091 136.635386
L 368.091682 138.669824
L 371.354272 140.44152
L 374.616863 141.979998
L 378.287273 143.46574
L 382.365503 144.853092
L 386.443749 146.00415
L 390.929815 147.041565
L 391.745455 147.207708
L 391.745455 147.207708
" clip-path="url(#p915f1ce322)" style="fill: none; stroke: #9c26b0; stroke-width: 1.5; stroke-linecap: square"/>
   </g>
   <g id="text_1">
    <path d="M 145.284375 116.668916
Q 145.284375 119.188916 144.6675 121.183916
Q 144.050625 123.178916 142.843125 124.557041
Q 141.635625 125.928604 139.870312 126.663604
Q 138.105 127.398604 135.814687 127.398604
Q 133.734375 127.398604 131.575312 126.814541
Q 131.614688 126.204229 131.67375 125.607041
Q 131.739375 125.003291 131.785313 124.419229
Q 131.824687 124.058291 132.04125 123.841729
Q 132.264375 123.618604 132.730312 123.618604
Q 133.104375 123.618604 133.72125 123.808916
Q 134.344687 123.999229 135.394688 123.999229
Q 136.779375 123.999229 137.86875 123.579229
Q 138.964687 123.159229 139.699687 122.279854
Q 140.434687 121.393916 140.821875 120.022354
Q 141.215625 118.644229 141.215625 116.754229
L 141.215625 96.968291
L 145.284375 96.968291
L 145.284375 116.668916
z
M 163.305 117.489229
Q 160.719375 117.574541 158.901562 117.902666
Q 157.090312 118.224229 155.941875 118.749229
Q 154.8 119.274229 154.281563 119.989541
Q 153.769688 120.698291 153.769688 121.584229
Q 153.769688 122.424229 154.03875 123.034541
Q 154.314375 123.638291 154.786875 124.032041
Q 155.259375 124.419229 155.9025 124.596416
Q 156.545625 124.773604 157.280625 124.773604
Q 158.265 124.773604 159.085312 124.576729
Q 159.905625 124.373291 160.6275 123.999229
Q 161.349375 123.618604 162.012187 123.093604
Q 162.675 122.568604 163.305 121.899229
L 163.305 117.489229
z
M 151.23 108.793916
Q 152.995312 107.094229 155.029687 106.254229
Q 157.070625 105.414229 159.544687 105.414229
Q 161.329687 105.414229 162.714375 106.004854
Q 164.105625 106.588916 165.050625 107.638916
Q 165.995625 108.688916 166.474687 110.178604
Q 166.960312 111.668291 166.960312 113.453291
L 166.960312 127.063916
L 165.3 127.063916
Q 164.755313 127.063916 164.46 126.886729
Q 164.164687 126.709541 164.000625 126.184541
L 163.580625 124.163291
Q 162.740625 124.944229 161.94 125.541416
Q 161.139375 126.138604 160.26 126.552041
Q 159.380625 126.958916 158.383125 127.175479
Q 157.385625 127.398604 156.165 127.398604
Q 154.924688 127.398604 153.82875 127.057354
Q 152.739375 126.709541 151.932187 126.013916
Q 151.125 125.318291 150.6525 124.261729
Q 150.18 123.198604 150.18 121.748291
Q 150.18 120.488291 150.869062 119.326729
Q 151.564687 118.158604 153.12 117.259541
Q 154.675312 116.353916 157.169062 115.776416
Q 159.669375 115.198916 163.305 115.113604
L 163.305 113.453291
Q 163.305 110.979229 162.235312 109.712666
Q 161.165625 108.439541 159.105 108.439541
Q 157.720312 108.439541 156.781875 108.787354
Q 155.85 109.128604 155.1675 109.561729
Q 154.485 109.988291 153.992812 110.336104
Q 153.500625 110.683916 153.015 110.683916
Q 152.634375 110.683916 152.35875 110.487041
Q 152.089687 110.283604 151.899375 109.988291
L 151.23 108.793916
z
M 190.12463 127.063916
L 186.52838 127.063916
Q 186.069005 127.063916 185.806505 126.821104
Q 185.544005 126.578291 185.37338 126.289541
L 180.01838 117.948604
Q 179.93963 118.243916 179.841193 118.526104
Q 179.749318 118.808291 179.578693 119.044541
L 174.624005 126.289541
Q 174.414005 126.578291 174.171193 126.821104
Q 173.92838 127.063916 173.50838 127.063916
L 170.17463 127.063916
L 177.62963 116.143916
L 170.46338 105.788291
L 174.05963 105.788291
Q 174.519005 105.788291 174.729005 105.939229
Q 174.939005 106.083604 175.10963 106.359229
L 180.33338 114.339229
Q 180.504005 113.728916 180.85838 113.164541
L 185.439005 106.444541
Q 185.629318 106.149229 185.84588 105.972041
Q 186.069005 105.788291 186.384005 105.788291
L 189.829318 105.788291
L 182.66963 115.953604
L 190.12463 127.063916
z
M 198.499694 110.158916
L 200.035319 110.158916
Q 200.829381 110.158916 201.315006 109.962041
Q 201.800631 109.758604 202.194381 109.279541
L 212.215319 97.939541
Q 212.635319 97.388291 213.094694 97.178291
Q 213.560631 96.968291 214.230006 96.968291
L 217.675319 96.968291
L 206.210631 109.929229
Q 205.790631 110.434541 205.396881 110.762666
Q 205.009694 111.084229 204.570006 111.294229
Q 205.134381 111.484541 205.593756 111.852041
Q 206.059694 112.219541 206.499381 112.803604
L 218.469381 127.063916
L 214.945319 127.063916
Q 214.545006 127.063916 214.262819 127.011416
Q 213.980631 126.958916 213.770631 126.847354
Q 213.560631 126.729229 213.403131 126.571729
Q 213.245631 126.414229 213.094694 126.204229
L 202.719381 114.253916
Q 202.299381 113.728916 201.813756 113.512354
Q 201.334694 113.289229 200.350319 113.289229
L 198.499694 113.289229
L 198.499694 127.063916
L 194.450631 127.063916
L 194.450631 96.968291
L 198.499694 96.968291
L 198.499694 110.158916
z
M 235.630325 114.109541
Q 235.630325 112.803604 235.262825 111.727354
Q 234.895325 110.644541 234.186575 109.857041
Q 233.484388 109.069541 232.473763 108.636416
Q 231.4697 108.203291 230.190013 108.203291
Q 227.499388 108.203291 225.937513 109.771729
Q 224.375638 111.333604 223.995013 114.109541
L 235.630325 114.109541
z
M 238.655638 124.084541
Q 237.960013 124.924541 236.995325 125.541416
Q 236.030638 126.158291 234.928138 126.558604
Q 233.825638 126.958916 232.644388 127.155791
Q 231.4697 127.359229 230.3147 127.359229
Q 228.1097 127.359229 226.252513 126.617666
Q 224.395325 125.869541 223.036888 124.432354
Q 221.685013 122.988604 220.930325 120.868916
Q 220.175638 118.749229 220.175638 115.999541
Q 220.175638 113.768291 220.858138 111.838916
Q 221.540638 109.909541 222.820325 108.492041
Q 224.100013 107.074541 225.944075 106.267354
Q 227.7947 105.453604 230.1047 105.453604
Q 232.014388 105.453604 233.641888 106.096729
Q 235.269388 106.733291 236.4572 107.940791
Q 237.645013 109.148291 238.314388 110.926729
Q 238.990325 112.698604 238.990325 114.969229
Q 238.990325 115.848604 238.800013 116.143916
Q 238.6097 116.439229 238.0847 116.439229
L 223.870325 116.439229
Q 223.929388 118.453916 224.421575 119.943604
Q 224.920325 121.433291 225.7997 122.430791
Q 226.685638 123.428291 227.8997 123.927041
Q 229.120325 124.419229 230.6297 124.419229
Q 232.040638 124.419229 233.057825 124.097666
Q 234.075013 123.769541 234.810013 123.388916
Q 235.545013 123.008291 236.0372 122.686729
Q 236.529388 122.358604 236.890325 122.358604
Q 237.3497 122.358604 237.605638 122.719541
L 238.655638 124.084541
z
M 247.116014 110.053916
Q 248.126639 107.868604 249.596639 106.641416
Q 251.066639 105.414229 253.186327 105.414229
Q 253.855702 105.414229 254.472577 105.565166
Q 255.096014 105.709541 255.581639 106.024541
L 255.306014 108.813604
Q 255.181327 109.338604 254.676014 109.338604
Q 254.380702 109.338604 253.809764 109.213916
Q 253.245389 109.089229 252.536639 109.089229
Q 251.526014 109.089229 250.738514 109.384541
Q 249.951014 109.673291 249.327577 110.250791
Q 248.710702 110.828291 248.218514 111.681416
Q 247.726327 112.534541 247.326014 113.623916
L 247.326014 127.063916
L 243.565702 127.063916
L 243.565702 105.788291
L 245.711639 105.788291
Q 246.315389 105.788291 246.545077 106.024541
Q 246.781327 106.254229 246.866639 106.818604
L 247.116014 110.053916
z
M 262.38433 108.879229
Q 263.073393 108.098291 263.847768 107.468291
Q 264.628705 106.838291 265.501518 106.392041
Q 266.37433 105.939229 267.34558 105.696416
Q 268.323393 105.453604 269.458705 105.453604
Q 271.20433 105.453604 272.536518 106.031104
Q 273.868705 106.608604 274.761205 107.671729
Q 275.653705 108.728291 276.11308 110.224541
Q 276.579018 111.714229 276.579018 113.518916
L 276.579018 127.063916
L 272.818705 127.063916
L 272.818705 113.518916
Q 272.818705 111.103916 271.716205 109.771729
Q 270.613705 108.439541 268.36933 108.439541
Q 266.709018 108.439541 265.27183 109.240166
Q 263.834643 110.034229 262.614018 111.399229
L 262.614018 127.063916
L 258.853705 127.063916
L 258.853705 105.788291
L 261.104643 105.788291
Q 261.898705 105.788291 262.089018 106.569229
L 262.38433 108.879229
z
" style="stroke: #ffffff; stroke-width: 3"/>
    <path d="M 145.284375 116.668916
Q 145.284375 119.188916 144.6675 121.183916
Q 144.050625 123.178916 142.843125 124.557041
Q 141.635625 125.928604 139.870312 126.663604
Q 138.105 127.398604 135.814687 127.398604
Q 133.734375 127.398604 131.575312 126.814541
Q 131.614688 126.204229 131.67375 125.607041
Q 131.739375 125.003291 131.785313 124.419229
Q 131.824687 124.058291 132.04125 123.841729
Q 132.264375 123.618604 132.730312 123.618604
Q 133.104375 123.618604 133.72125 123.808916
Q 134.344687 123.999229 135.394688 123.999229
Q 136.779375 123.999229 137.86875 123.579229
Q 138.964687 123.159229 139.699687 122.279854
Q 140.434687 121.393916 140.821875 120.022354
Q 141.215625 118.644229 141.215625 116.754229
L 141.215625 96.968291
L 145.284375 96.968291
L 145.284375 116.668916
z
M 163.305 117.489229
Q 160.719375 117.574541 158.901562 117.902666
Q 157.090312 118.224229 155.941875 118.749229
Q 154.8 119.274229 154.281563 119.989541
Q 153.769688 120.698291 153.769688 121.584229
Q 153.769688 122.424229 154.03875 123.034541
Q 154.314375 123.638291 154.786875 124.032041
Q 155.259375 124.419229 155.9025 124.596416
Q 156.545625 124.773604 157.280625 124.773604
Q 158.265 124.773604 159.085312 124.576729
Q 159.905625 124.373291 160.6275 123.999229
Q 161.349375 123.618604 162.012187 123.093604
Q 162.675 122.568604 163.305 121.899229
L 163.305 117.489229
z
M 151.23 108.793916
Q 152.995312 107.094229 155.029687 106.254229
Q 157.070625 105.414229 159.544687 105.414229
Q 161.329687 105.414229 162.714375 106.004854
Q 164.105625 106.588916 165.050625 107.638916
Q 165.995625 108.688916 166.474687 110.178604
Q 166.960312 111.668291 166.960312 113.453291
L 166.960312 127.063916
L 165.3 127.063916
Q 164.755313 127.063916 164.46 126.886729
Q 164.164687 126.709541 164.000625 126.184541
L 163.580625 124.163291
Q 162.740625 124.944229 161.94 125.541416
Q 161.139375 126.138604 160.26 126.552041
Q 159.380625 126.958916 158.383125 127.175479
Q 157.385625 127.398604 156.165 127.398604
Q 154.924688 127.398604 153.82875 127.057354
Q 152.739375 126.709541 151.932187 126.013916
Q 151.125 125.318291 150.6525 124.261729
Q 150.18 123.198604 150.18 121.748291
Q 150.18 120.488291 150.869062 119.326729
Q 151.564687 118.158604 153.12 117.259541
Q 154.675312 116.353916 157.169062 115.776416
Q 159.669375 115.198916 163.305 115.113604
L 163.305 113.453291
Q 163.305 110.979229 162.235312 109.712666
Q 161.165625 108.439541 159.105 108.439541
Q 157.720312 108.439541 156.781875 108.787354
Q 155.85 109.128604 155.1675 109.561729
Q 154.485 109.988291 153.992812 110.336104
Q 153.500625 110.683916 153.015 110.683916
Q 152.634375 110.683916 152.35875 110.487041
Q 152.089687 110.283604 151.899375 109.988291
L 151.23 108.793916
z
M 190.12463 127.063916
L 186.52838 127.063916
Q 186.069005 127.063916 185.806505 126.821104
Q 185.544005 126.578291 185.37338 126.289541
L 180.01838 117.948604
Q 179.93963 118.243916 179.841193 118.526104
Q 179.749318 118.808291 179.578693 119.044541
L 174.624005 126.289541
Q 174.414005 126.578291 174.171193 126.821104
Q 173.92838 127.063916 173.50838 127.063916
L 170.17463 127.063916
L 177.62963 116.143916
L 170.46338 105.788291
L 174.05963 105.788291
Q 174.519005 105.788291 174.729005 105.939229
Q 174.939005 106.083604 175.10963 106.359229
L 180.33338 114.339229
Q 180.504005 113.728916 180.85838 113.164541
L 185.439005 106.444541
Q 185.629318 106.149229 185.84588 105.972041
Q 186.069005 105.788291 186.384005 105.788291
L 189.829318 105.788291
L 182.66963 115.953604
L 190.12463 127.063916
z
M 198.499694 110.158916
L 200.035319 110.158916
Q 200.829381 110.158916 201.315006 109.962041
Q 201.800631 109.758604 202.194381 109.279541
L 212.215319 97.939541
Q 212.635319 97.388291 213.094694 97.178291
Q 213.560631 96.968291 214.230006 96.968291
L 217.675319 96.968291
L 206.210631 109.929229
Q 205.790631 110.434541 205.396881 110.762666
Q 205.009694 111.084229 204.570006 111.294229
Q 205.134381 111.484541 205.593756 111.852041
Q 206.059694 112.219541 206.499381 112.803604
L 218.469381 127.063916
L 214.945319 127.063916
Q 214.545006 127.063916 214.262819 127.011416
Q 213.980631 126.958916 213.770631 126.847354
Q 213.560631 126.729229 213.403131 126.571729
Q 213.245631 126.414229 213.094694 126.204229
L 202.719381 114.253916
Q 202.299381 113.728916 201.813756 113.512354
Q 201.334694 113.289229 200.350319 113.289229
L 198.499694 113.289229
L 198.499694 127.063916
L 194.450631 127.063916
L 194.450631 96.968291
L 198.499694 96.968291
L 198.499694 110.158916
z
M 235.630325 114.109541
Q 235.630325 112.803604 235.262825 111.727354
Q 234.895325 110.644541 234.186575 109.857041
Q 233.484388 109.069541 232.473763 108.636416
Q 231.4697 108.203291 230.190013 108.203291
Q 227.499388 108.203291 225.937513 109.771729
Q 224.375638 111.333604 223.995013 114.109541
L 235.630325 114.109541
z
M 238.655638 124.084541
Q 237.960013 124.924541 236.995325 125.541416
Q 236.030638 126.158291 234.928138 126.558604
Q 233.825638 126.958916 232.644388 127.155791
Q 231.4697 127.359229 230.3147 127.359229
Q 228.1097 127.359229 226.252513 126.617666
Q 224.395325 125.869541 223.036888 124.432354
Q 221.685013 122.988604 220.930325 120.868916
Q 220.175638 118.749229 220.175638 115.999541
Q 220.175638 113.768291 220.858138 111.838916
Q 221.540638 109.909541 222.820325 108.492041
Q 224.100013 107.074541 225.944075 106.267354
Q 227.7947 105.453604 230.1047 105.453604
Q 232.014388 105.453604 233.641888 106.096729
Q 235.269388 106.733291 236.4572 107.940791
Q 237.645013 109.148291 238.314388 110.926729
Q 238.990325 112.698604 238.990325 114.969229
Q 238.990325 115.848604 238.800013 116.143916
Q 238.6097 116.439229 238.0847 116.439229
L 223.870325 116.439229
Q 223.929388 118.453916 224.421575 119.943604
Q 224.920325 121.433291 225.7997 122.430791
Q 226.685638 123.428291 227.8997 123.927041
Q 229.120325 124.419229 230.6297 124.419229
Q 232.040638 124.419229 233.057825 124.097666
Q 234.075013 123.769541 234.810013 123.388916
Q 235.545013 123.008291 236.0372 122.686729
Q 236.529388 122.358604 236.890325 122.358604
Q 237.3497 122.358604 237.605638 122.719541
L 238.655638 124.084541
z
M 247.116014 110.053916
Q 248.126639 107.868604 249.596639 106.641416
Q 251.066639 105.414229 253.186327 105.414229
Q 253.855702 105.414229 254.472577 105.565166
Q 255.096014 105.709541 255.581639 106.024541
L 255.306014 108.813604
Q 255.181327 109.338604 254.676014 109.338604
Q 254.380702 109.338604 253.809764 109.213916
Q 253.245389 109.089229 252.536639 109.089229
Q 251.526014 109.089229 250.738514 109.384541
Q 249.951014 109.673291 249.327577 110.250791
Q 248.710702 110.828291 248.218514 111.681416
Q 247.726327 112.534541 247.326014 113.623916
L 247.326014 127.063916
L 243.565702 127.063916
L 243.565702 105.788291
L 245.711639 105.788291
Q 246.315389 105.788291 246.545077 106.024541
Q 246.781327 106.254229 246.866639 106.818604
L 247.116014 110.053916
z
M 262.38433 108.879229
Q 263.073393 108.098291 263.847768 107.468291
Q 264.628705 106.838291 265.501518 106.392041
Q 266.37433 105.939229 267.34558 105.696416
Q 268.323393 105.453604 269.458705 105.453604
Q 271.20433 105.453604 272.536518 106.031104
Q 273.868705 106.608604 274.761205 107.671729
Q 275.653705 108.728291 276.11308 110.224541
Q 276.579018 111.714229 276.579018 113.518916
L 276.579018 127.063916
L 272.818705 127.063916
L 272.818705 113.518916
Q 272.818705 111.103916 271.716205 109.771729
Q 270.613705 108.439541 268.36933 108.439541
Q 266.709018 108.439541 265.27183 109.240166
Q 263.834643 110.034229 262.614018 111.399229
L 262.614018 127.063916
L 258.853705 127.063916
L 258.853705 105.788291
L 261.104643 105.788291
Q 261.898705 105.788291 262.089018 106.569229
L 262.38433 108.879229
z
"/>
   </g>
  </g>
 </g>
 <defs>
  <clipPath id="p915f1ce322">
   <rect x="0" y="0" width="410.4" height="158.4"/>
  </clipPath>
 </defs>
</svg>
