<?xml version="1.0" encoding="utf-8" standalone="no"?>
<!DOCTYPE svg PUBLIC "-//W3C//DTD SVG 1.1//EN"
  "http://www.w3.org/Graphics/SVG/1.1/DTD/svg11.dtd">
<svg xmlns:xlink="http://www.w3.org/1999/xlink" width="404.39952pt" height="188.39952pt" viewBox="0 0 404.39952 188.39952" xmlns="http://www.w3.org/2000/svg" version="1.1">
 <metadata>
  <rdf:RDF xmlns:dc="http://purl.org/dc/elements/1.1/" xmlns:cc="http://creativecommons.org/ns#" xmlns:rdf="http://www.w3.org/1999/02/22-rdf-syntax-ns#">
   <cc:Work>
    <dc:type rdf:resource="http://purl.org/dc/dcmitype/StillImage"/>
    <dc:date>2023-05-18T20:20:35.450666</dc:date>
    <dc:format>image/svg+xml</dc:format>
    <dc:creator>
     <cc:Agent>
      <dc:title>Matplotlib v3.7.1, https://matplotlib.org/</dc:title>
     </cc:Agent>
    </dc:creator>
   </cc:Work>
  </rdf:RDF>
 </metadata>
 <defs>
  <style type="text/css">*{stroke-linejoin: round; stroke-linecap: butt}</style>
 </defs>
 <g id="figure_1">
  <g id="patch_1">
   <path d="M 0 188.39952
L 404.39952 188.39952
L 404.39952 0
L 0 0
L 0 188.39952
z
" style="fill: none"/>
  </g>
  <g id="axes_1">
   <g id="patch_2">
    <path d="M 7.2 165.343843
L 388.343813 165.343843
L 388.343813 7.2
L 7.2 7.2
L 7.2 165.343843
z
" style="fill: none"/>
   </g>
   <g id="matplotlib.axis_1">
    <g id="xtick_1">
     <g id="line2d_1">
      <path d="M 31.021488 165.343843
L 31.021488 7.2
" clip-path="url(#pe8682e6e4a)" style="fill: none; stroke: #cbcbcb; stroke-width: 0.2; stroke-linecap: square"/>
     </g>
     <g id="line2d_2">
      <defs>
       <path id="mfd4ed6dd52" d="M 0 0
L 0 3.5
" style="stroke: #000000; stroke-width: 0.8"/>
      </defs>
      <g>
       <use xlink:href="#mfd4ed6dd52" x="31.021488" y="165.343843" style="stroke: #000000; stroke-width: 0.8"/>
      </g>
     </g>
     <g id="text_1">
      <!-- $\mathdefault{−0.05}$ -->
      <g transform="translate(18.291409 179.262342) scale(0.1 -0.1)">
       <defs>
        <path id="CMSY10-0" d="M 4218 1472
C 4326 1472 4442 1472 4442 1600
C 4442 1728 4326 1728 4218 1728
L 755 1728
C 646 1728 531 1728 531 1600
C 531 1472 646 1472 755 1472
L 4218 1472
z
" transform="scale(0.015625)"/>
        <path id="CMR17-30" d="M 2688 2025
C 2688 2416 2682 3080 2413 3591
C 2176 4039 1798 4198 1466 4198
C 1158 4198 768 4058 525 3597
C 269 3118 243 2524 243 2025
C 243 1661 250 1106 448 619
C 723 -39 1216 -128 1466 -128
C 1760 -128 2208 -7 2470 600
C 2662 1042 2688 1559 2688 2025
z
M 1466 -26
C 1056 -26 813 325 723 812
C 653 1188 653 1738 653 2096
C 653 2588 653 2997 736 3387
C 858 3929 1216 4096 1466 4096
C 1728 4096 2067 3923 2189 3400
C 2272 3036 2278 2607 2278 2096
C 2278 1680 2278 1169 2202 792
C 2067 95 1690 -26 1466 -26
z
" transform="scale(0.015625)"/>
        <path id="CMMI12-3a" d="M 1178 307
C 1178 492 1024 619 870 619
C 685 619 557 466 557 313
C 557 128 710 0 864 0
C 1050 0 1178 153 1178 307
z
" transform="scale(0.015625)"/>
        <path id="CMR17-35" d="M 730 3692
C 794 3666 1056 3584 1325 3584
C 1920 3584 2246 3911 2432 4100
C 2432 4157 2432 4192 2394 4192
C 2387 4192 2374 4192 2323 4163
C 2099 4058 1837 3973 1517 3973
C 1325 3973 1037 3999 723 4139
C 653 4171 640 4171 634 4171
C 602 4171 595 4164 595 4037
L 595 2203
C 595 2089 595 2057 659 2057
C 691 2057 704 2070 736 2114
C 941 2401 1222 2522 1542 2522
C 1766 2522 2246 2382 2246 1289
C 2246 1085 2246 715 2054 421
C 1894 159 1645 25 1370 25
C 947 25 518 320 403 814
C 429 807 480 795 506 795
C 589 795 749 840 749 1038
C 749 1210 627 1280 506 1280
C 358 1280 262 1190 262 1011
C 262 454 704 -128 1382 -128
C 2042 -128 2669 440 2669 1264
C 2669 2030 2170 2624 1549 2624
C 1222 2624 947 2503 730 2274
L 730 3692
z
" transform="scale(0.015625)"/>
       </defs>
       <use xlink:href="#CMSY10-0" transform="scale(0.996264)"/>
       <use xlink:href="#CMR17-30" transform="translate(77.487468 0) scale(0.996264)"/>
       <use xlink:href="#CMMI12-3a" transform="translate(123.177945 0) scale(0.996264)"/>
       <use xlink:href="#CMR17-30" transform="translate(150.275122 0) scale(0.996264)"/>
       <use xlink:href="#CMR17-35" transform="translate(195.965599 0) scale(0.996264)"/>
      </g>
     </g>
    </g>
    <g id="xtick_2">
     <g id="line2d_3">
      <path d="M 90.575209 165.343843
L 90.575209 7.2
" clip-path="url(#pe8682e6e4a)" style="fill: none; stroke: #cbcbcb; stroke-width: 0.2; stroke-linecap: square"/>
     </g>
     <g id="line2d_4">
      <g>
       <use xlink:href="#mfd4ed6dd52" x="90.575209" y="165.343843" style="stroke: #000000; stroke-width: 0.8"/>
      </g>
     </g>
     <g id="text_2">
      <!-- $\mathdefault{0.00}$ -->
      <g transform="translate(81.719502 179.262342) scale(0.1 -0.1)">
       <use xlink:href="#CMR17-30" transform="scale(0.996264)"/>
       <use xlink:href="#CMMI12-3a" transform="translate(45.690477 0) scale(0.996264)"/>
       <use xlink:href="#CMR17-30" transform="translate(72.787654 0) scale(0.996264)"/>
       <use xlink:href="#CMR17-30" transform="translate(118.478131 0) scale(0.996264)"/>
      </g>
     </g>
    </g>
    <g id="xtick_3">
     <g id="line2d_5">
      <path d="M 150.12893 165.343843
L 150.12893 7.2
" clip-path="url(#pe8682e6e4a)" style="fill: none; stroke: #cbcbcb; stroke-width: 0.2; stroke-linecap: square"/>
     </g>
     <g id="line2d_6">
      <g>
       <use xlink:href="#mfd4ed6dd52" x="150.12893" y="165.343843" style="stroke: #000000; stroke-width: 0.8"/>
      </g>
     </g>
     <g id="text_3">
      <!-- $\mathdefault{0.05}$ -->
      <g transform="translate(141.273223 179.262342) scale(0.1 -0.1)">
       <use xlink:href="#CMR17-30" transform="scale(0.996264)"/>
       <use xlink:href="#CMMI12-3a" transform="translate(45.690477 0) scale(0.996264)"/>
       <use xlink:href="#CMR17-30" transform="translate(72.787654 0) scale(0.996264)"/>
       <use xlink:href="#CMR17-35" transform="translate(118.478131 0) scale(0.996264)"/>
      </g>
     </g>
    </g>
    <g id="xtick_4">
     <g id="line2d_7">
      <path d="M 209.682651 165.343843
L 209.682651 7.2
" clip-path="url(#pe8682e6e4a)" style="fill: none; stroke: #cbcbcb; stroke-width: 0.2; stroke-linecap: square"/>
     </g>
     <g id="line2d_8">
      <g>
       <use xlink:href="#mfd4ed6dd52" x="209.682651" y="165.343843" style="stroke: #000000; stroke-width: 0.8"/>
      </g>
     </g>
     <g id="text_4">
      <!-- $\mathdefault{0.10}$ -->
      <g transform="translate(200.826943 179.262342) scale(0.1 -0.1)">
       <defs>
        <path id="CMR17-31" d="M 1702 4058
C 1702 4192 1696 4192 1606 4192
C 1357 3916 979 3827 621 3827
C 602 3827 570 3827 563 3808
C 557 3795 557 3782 557 3648
C 755 3648 1088 3686 1344 3839
L 1344 461
C 1344 236 1331 160 781 160
L 589 160
L 589 0
C 896 0 1216 0 1523 0
C 1830 0 2150 0 2458 0
L 2458 160
L 2266 160
C 1715 160 1702 230 1702 458
L 1702 4058
z
" transform="scale(0.015625)"/>
       </defs>
       <use xlink:href="#CMR17-30" transform="scale(0.996264)"/>
       <use xlink:href="#CMMI12-3a" transform="translate(45.690477 0) scale(0.996264)"/>
       <use xlink:href="#CMR17-31" transform="translate(72.787654 0) scale(0.996264)"/>
       <use xlink:href="#CMR17-30" transform="translate(118.478131 0) scale(0.996264)"/>
      </g>
     </g>
    </g>
    <g id="xtick_5">
     <g id="line2d_9">
      <path d="M 269.236371 165.343843
L 269.236371 7.2
" clip-path="url(#pe8682e6e4a)" style="fill: none; stroke: #cbcbcb; stroke-width: 0.2; stroke-linecap: square"/>
     </g>
     <g id="line2d_10">
      <g>
       <use xlink:href="#mfd4ed6dd52" x="269.236371" y="165.343843" style="stroke: #000000; stroke-width: 0.8"/>
      </g>
     </g>
     <g id="text_5">
      <!-- $\mathdefault{0.15}$ -->
      <g transform="translate(260.380664 179.262342) scale(0.1 -0.1)">
       <use xlink:href="#CMR17-30" transform="scale(0.996264)"/>
       <use xlink:href="#CMMI12-3a" transform="translate(45.690477 0) scale(0.996264)"/>
       <use xlink:href="#CMR17-31" transform="translate(72.787654 0) scale(0.996264)"/>
       <use xlink:href="#CMR17-35" transform="translate(118.478131 0) scale(0.996264)"/>
      </g>
     </g>
    </g>
    <g id="xtick_6">
     <g id="line2d_11">
      <path d="M 328.790092 165.343843
L 328.790092 7.2
" clip-path="url(#pe8682e6e4a)" style="fill: none; stroke: #cbcbcb; stroke-width: 0.2; stroke-linecap: square"/>
     </g>
     <g id="line2d_12">
      <g>
       <use xlink:href="#mfd4ed6dd52" x="328.790092" y="165.343843" style="stroke: #000000; stroke-width: 0.8"/>
      </g>
     </g>
     <g id="text_6">
      <!-- $\mathdefault{0.20}$ -->
      <g transform="translate(319.934385 179.262342) scale(0.1 -0.1)">
       <defs>
        <path id="CMR17-32" d="M 2669 989
L 2554 989
C 2490 536 2438 459 2413 420
C 2381 369 1920 369 1830 369
L 602 369
C 832 619 1280 1072 1824 1597
C 2214 1967 2669 2402 2669 3035
C 2669 3790 2067 4224 1395 4224
C 691 4224 262 3604 262 3030
C 262 2780 448 2748 525 2748
C 589 2748 781 2787 781 3010
C 781 3207 614 3264 525 3264
C 486 3264 448 3258 422 3245
C 544 3790 915 4058 1306 4058
C 1862 4058 2227 3617 2227 3035
C 2227 2479 1901 2000 1536 1584
L 262 146
L 262 0
L 2515 0
L 2669 989
z
" transform="scale(0.015625)"/>
       </defs>
       <use xlink:href="#CMR17-30" transform="scale(0.996264)"/>
       <use xlink:href="#CMMI12-3a" transform="translate(45.690477 0) scale(0.996264)"/>
       <use xlink:href="#CMR17-32" transform="translate(72.787654 0) scale(0.996264)"/>
       <use xlink:href="#CMR17-30" transform="translate(118.478131 0) scale(0.996264)"/>
      </g>
     </g>
    </g>
    <g id="xtick_7">
     <g id="line2d_13">
      <path d="M 388.343813 165.343843
L 388.343813 7.2
" clip-path="url(#pe8682e6e4a)" style="fill: none; stroke: #cbcbcb; stroke-width: 0.2; stroke-linecap: square"/>
     </g>
     <g id="line2d_14">
      <g>
       <use xlink:href="#mfd4ed6dd52" x="388.343813" y="165.343843" style="stroke: #000000; stroke-width: 0.8"/>
      </g>
     </g>
     <g id="text_7">
      <!-- $\mathdefault{0.25}$ -->
      <g transform="translate(379.488106 179.262342) scale(0.1 -0.1)">
       <use xlink:href="#CMR17-30" transform="scale(0.996264)"/>
       <use xlink:href="#CMMI12-3a" transform="translate(45.690477 0) scale(0.996264)"/>
       <use xlink:href="#CMR17-32" transform="translate(72.787654 0) scale(0.996264)"/>
       <use xlink:href="#CMR17-35" transform="translate(118.478131 0) scale(0.996264)"/>
      </g>
     </g>
    </g>
   </g>
   <g id="patch_3">
    <path d="M 160.777291 87.844551
Q 141.353001 106.099874 121.908944 92.902215
L 120.926139 94.350178
Q 118.244282 91.312742 115.832279 87.664247
Q 119.637342 89.85815 123.17255 91.040549
L 122.189745 92.488512
Q 141.302424 105.461247 160.434871 87.480204
L 160.777291 87.844551
z
" clip-path="url(#pe8682e6e4a)" style="stroke: #000000; stroke-linecap: round"/>
   </g>
   <g id="patch_4">
    <path d="M 208.420268 87.844551
Q 188.995978 106.099874 169.551921 92.902215
L 168.569116 94.350178
Q 165.887259 91.312742 163.475256 87.664247
Q 167.280319 89.85815 170.815527 91.040549
L 169.832722 92.488512
Q 188.945401 105.461247 208.077848 87.480204
L 208.420268 87.844551
z
" clip-path="url(#pe8682e6e4a)" style="stroke: #000000; stroke-linecap: round"/>
   </g>
   <g id="patch_5">
    <path d="M 291.804117 87.854726
Q 254.365758 124.011169 216.915599 93.201431
L 215.80379 94.552867
Q 213.394692 91.273821 211.110635 87.675449
Q 214.790371 89.836583 218.345067 91.463869
L 217.233258 92.815306
Q 254.339116 123.341792 291.456775 87.495069
L 291.804117 87.854726
z
" clip-path="url(#pe8682e6e4a)" style="stroke: #000000; stroke-linecap: round"/>
   </g>
   <g id="patch_6">
    <path d="M 113.13875 87.848963
Q 87.685773 112.079315 62.216595 93.045057
L 61.168979 94.446841
Q 58.623088 91.290899 56.272648 87.667271
Q 60.015814 89.844679 63.56353 91.242763
L 62.515914 92.644547
Q 87.646858 111.426028 112.794001 87.486819
L 113.13875 87.848963
z
" clip-path="url(#pe8682e6e4a)" style="stroke: #000000; stroke-linecap: round"/>
   </g>
   <g id="line2d_15">
    <path d="M 7.2 86.271922
L 388.343813 86.271922
" clip-path="url(#pe8682e6e4a)" style="fill: none; stroke: #2f83b4; stroke-width: 1.5; stroke-linecap: square"/>
   </g>
   <g id="PathCollection_1">
    <defs>
     <path id="m13d2ee93b1" d="M 0 5
C 1.326016 5 2.597899 4.473168 3.535534 3.535534
C 4.473168 2.597899 5 1.326016 5 0
C 5 -1.326016 4.473168 -2.597899 3.535534 -3.535534
C 2.597899 -4.473168 1.326016 -5 0 -5
C -1.326016 -5 -2.597899 -4.473168 -3.535534 -3.535534
C -4.473168 -2.597899 -5 -1.326016 -5 0
C -5 1.326016 -4.473168 2.597899 -3.535534 3.535534
C -2.597899 4.473168 -1.326016 5 0 5
z
" style="stroke: #b5121b"/>
    </defs>
    <g clip-path="url(#pe8682e6e4a)">
     <use xlink:href="#m13d2ee93b1" x="114.396697" y="86.271922" style="fill: #b5121b; stroke: #b5121b"/>
     <use xlink:href="#m13d2ee93b1" x="162.039674" y="86.271922" style="fill: #b5121b; stroke: #b5121b"/>
     <use xlink:href="#m13d2ee93b1" x="209.682651" y="86.271922" style="fill: #b5121b; stroke: #b5121b"/>
     <use xlink:href="#m13d2ee93b1" x="293.05786" y="86.271922" style="fill: #b5121b; stroke: #b5121b"/>
    </g>
   </g>
   <g id="PathCollection_2">
    <defs>
     <path id="ma01fd5be15" d="M -5 5
L 5 -5
M -5 -5
L 5 5
" style="stroke: #b5121b; stroke-width: 5"/>
    </defs>
    <g clip-path="url(#pe8682e6e4a)">
     <use xlink:href="#ma01fd5be15" x="54.842977" y="86.271922" style="fill: #b5121b; stroke: #b5121b; stroke-width: 5"/>
    </g>
   </g>
   <g id="line2d_16">
    <path d="M 90.575209 165.343843
L 90.575209 7.2
" clip-path="url(#pe8682e6e4a)" style="fill: none; stroke-dasharray: 3.2,0.8,0.5,0.8; stroke-dashoffset: 0; stroke: #000000; stroke-width: 0.5"/>
   </g>
   <g id="patch_7">
    <path d="M 7.2 165.343843
L 388.343813 165.343843
" style="fill: none; stroke: #000000; stroke-width: 0.8; stroke-linejoin: miter; stroke-linecap: square"/>
   </g>
   <g id="text_8">
    <!-- $\ell_{t-1}$ -->
    <g transform="translate(117.628151 76.427551) scale(0.1 -0.1)">
     <defs>
      <path id="CMMI12-60" d="M 589 1088
C 186 692 83 597 83 572
C 83 546 109 501 154 501
C 186 501 550 851 602 909
C 640 482 800 -73 1299 -73
C 1555 -73 1786 86 1888 163
C 1971 227 2278 488 2278 546
C 2278 578 2246 616 2214 616
C 2189 616 2093 520 2067 495
C 1843 278 1562 55 1306 55
C 960 55 915 552 915 897
C 915 960 915 1228 960 1279
C 1338 1667 2522 2886 2522 4014
C 2522 4269 2426 4492 2150 4492
C 1555 4492 1037 3178 947 2936
C 922 2873 550 1891 589 1088
z
M 973 1471
C 979 1509 1267 3186 1805 4082
C 1914 4255 2022 4364 2150 4364
C 2368 4364 2381 4159 2381 4018
C 2381 3794 2317 3218 1760 2412
C 1594 2175 1338 1855 973 1471
z
" transform="scale(0.015625)"/>
      <path id="CMMI12-74" d="M 1286 2566
L 1875 2566
C 1997 2566 2061 2566 2061 2681
C 2061 2752 2022 2752 1894 2752
L 1331 2752
L 1568 3692
C 1594 3781 1594 3794 1594 3840
C 1594 3943 1510 4000 1427 4000
C 1376 4000 1229 3981 1178 3775
L 928 2752
L 326 2752
C 198 2752 141 2752 141 2630
C 141 2566 186 2566 307 2566
L 877 2566
L 454 881
C 403 658 384 594 384 511
C 384 211 595 -64 954 -64
C 1600 -64 1946 868 1946 912
C 1946 951 1920 970 1882 970
C 1869 970 1843 970 1830 944
C 1824 938 1818 931 1773 829
C 1638 511 1344 64 973 64
C 781 64 768 224 768 364
C 768 370 768 492 787 568
L 1286 2566
z
" transform="scale(0.015625)"/>
     </defs>
     <use xlink:href="#CMMI12-60" transform="scale(0.996264)"/>
     <use xlink:href="#CMMI12-74" transform="translate(40.934219 -14.943915) scale(0.697382)"/>
     <use xlink:href="#CMSY10-0" transform="translate(65.592529 -14.943915) scale(0.697382)"/>
     <use xlink:href="#CMR17-31" transform="translate(119.833522 -14.943915) scale(0.697382)"/>
    </g>
   </g>
   <g id="text_9">
    <!-- $\ell_{t-2}$ -->
    <g transform="translate(165.271128 76.427551) scale(0.1 -0.1)">
     <use xlink:href="#CMMI12-60" transform="scale(0.996264)"/>
     <use xlink:href="#CMMI12-74" transform="translate(40.934219 -14.943915) scale(0.697382)"/>
     <use xlink:href="#CMSY10-0" transform="translate(65.592529 -14.943915) scale(0.697382)"/>
     <use xlink:href="#CMR17-32" transform="translate(119.833522 -14.943915) scale(0.697382)"/>
    </g>
   </g>
   <g id="text_10">
    <!-- $\ell_{t-3}$ -->
    <g transform="translate(212.914104 76.427551) scale(0.1 -0.1)">
     <defs>
      <path id="CMR17-33" d="M 1414 2157
C 1984 2157 2234 1662 2234 1090
C 2234 320 1824 25 1453 25
C 1114 25 563 194 390 693
C 422 680 454 680 486 680
C 640 680 755 782 755 948
C 755 1133 614 1216 486 1216
C 378 1216 211 1165 211 926
C 211 335 787 -128 1466 -128
C 2176 -128 2720 430 2720 1085
C 2720 1707 2208 2157 1600 2227
C 2086 2328 2554 2756 2554 3329
C 2554 3820 2048 4179 1472 4179
C 890 4179 378 3829 378 3329
C 378 3110 544 3072 627 3072
C 762 3072 877 3155 877 3321
C 877 3486 762 3569 627 3569
C 602 3569 570 3569 544 3557
C 730 3959 1235 4032 1459 4032
C 1683 4032 2106 3925 2106 3320
C 2106 3143 2080 2828 1862 2550
C 1670 2304 1453 2304 1242 2284
C 1210 2284 1062 2269 1037 2269
C 992 2263 966 2257 966 2208
C 966 2163 973 2157 1101 2157
L 1414 2157
z
" transform="scale(0.015625)"/>
     </defs>
     <use xlink:href="#CMMI12-60" transform="scale(0.996264)"/>
     <use xlink:href="#CMMI12-74" transform="translate(40.934219 -14.943915) scale(0.697382)"/>
     <use xlink:href="#CMSY10-0" transform="translate(65.592529 -14.943915) scale(0.697382)"/>
     <use xlink:href="#CMR17-33" transform="translate(119.833522 -14.943915) scale(0.697382)"/>
    </g>
   </g>
   <g id="text_11">
    <!-- $\ell_{t-4}$ -->
    <g transform="translate(296.289313 76.427551) scale(0.1 -0.1)">
     <defs>
      <path id="CMR17-34" d="M 2150 4122
C 2150 4256 2144 4256 2029 4256
L 128 1254
L 128 1088
L 1779 1088
L 1779 457
C 1779 224 1766 160 1318 160
L 1197 160
L 1197 0
C 1402 0 1747 0 1965 0
C 2182 0 2528 0 2733 0
L 2733 160
L 2611 160
C 2163 160 2150 224 2150 457
L 2150 1088
L 2803 1088
L 2803 1254
L 2150 1254
L 2150 4122
z
M 1798 3703
L 1798 1254
L 256 1254
L 1798 3703
z
" transform="scale(0.015625)"/>
     </defs>
     <use xlink:href="#CMMI12-60" transform="scale(0.996264)"/>
     <use xlink:href="#CMMI12-74" transform="translate(40.934219 -14.943915) scale(0.697382)"/>
     <use xlink:href="#CMSY10-0" transform="translate(65.592529 -14.943915) scale(0.697382)"/>
     <use xlink:href="#CMR17-34" transform="translate(119.833522 -14.943915) scale(0.697382)"/>
    </g>
   </g>
  </g>
 </g>
 <defs>
  <clipPath id="pe8682e6e4a">
   <rect x="7.2" y="7.2" width="381.143813" height="158.143843"/>
  </clipPath>
 </defs>
</svg>
