<?xml version="1.0" encoding="utf-8" standalone="no"?>
<!DOCTYPE svg PUBLIC "-//W3C//DTD SVG 1.1//EN"
  "http://www.w3.org/Graphics/SVG/1.1/DTD/svg11.dtd">
<svg xmlns:xlink="http://www.w3.org/1999/xlink" width="404.39952pt" height="188.39952pt" viewBox="0 0 404.39952 188.39952" xmlns="http://www.w3.org/2000/svg" version="1.1">
 <metadata>
  <rdf:RDF xmlns:dc="http://purl.org/dc/elements/1.1/" xmlns:cc="http://creativecommons.org/ns#" xmlns:rdf="http://www.w3.org/1999/02/22-rdf-syntax-ns#">
   <cc:Work>
    <dc:type rdf:resource="http://purl.org/dc/dcmitype/StillImage"/>
    <dc:date>2023-05-18T20:58:11.814177</dc:date>
    <dc:format>image/svg+xml</dc:format>
    <dc:creator>
     <cc:Agent>
      <dc:title>Matplotlib v3.7.1, https://matplotlib.org/</dc:title>
     </cc:Agent>
    </dc:creator>
   </cc:Work>
  </rdf:RDF>
 </metadata>
 <defs>
  <style type="text/css">*{stroke-linejoin: round; stroke-linecap: butt}</style>
 </defs>
 <g id="figure_1">
  <g id="patch_1">
   <path d="M 0 188.39952
L 404.39952 188.39952
L 404.39952 0
L 0 0
L 0 188.39952
z
" style="fill: none"/>
  </g>
  <g id="axes_1">
   <g id="patch_2">
    <path d="M 7.2 165.343843
L 397.19952 165.343843
L 397.19952 7.2
L 7.2 7.2
L 7.2 165.343843
z
" style="fill: none"/>
   </g>
   <g id="matplotlib.axis_1">
    <g id="xtick_1">
     <g id="line2d_1">
      <path d="M 24.67489 165.343843
L 24.67489 7.2
" clip-path="url(#p906e38cfcc)" style="fill: none; stroke: #cbcbcb; stroke-width: 0.2; stroke-linecap: square"/>
     </g>
     <g id="line2d_2">
      <defs>
       <path id="meed1585f76" d="M 0 0
L 0 3.5
" style="stroke: #000000; stroke-width: 0.8"/>
      </defs>
      <g>
       <use xlink:href="#meed1585f76" x="24.67489" y="165.343843" style="stroke: #000000; stroke-width: 0.8"/>
      </g>
     </g>
     <g id="text_1">
      <!-- $\mathdefault{−3}$ -->
      <g transform="translate(18.30985 179.262342) scale(0.1 -0.1)">
       <defs>
        <path id="CMSY10-0" d="M 4218 1472
C 4326 1472 4442 1472 4442 1600
C 4442 1728 4326 1728 4218 1728
L 755 1728
C 646 1728 531 1728 531 1600
C 531 1472 646 1472 755 1472
L 4218 1472
z
" transform="scale(0.015625)"/>
        <path id="CMR17-33" d="M 1414 2157
C 1984 2157 2234 1662 2234 1090
C 2234 320 1824 25 1453 25
C 1114 25 563 194 390 693
C 422 680 454 680 486 680
C 640 680 755 782 755 948
C 755 1133 614 1216 486 1216
C 378 1216 211 1165 211 926
C 211 335 787 -128 1466 -128
C 2176 -128 2720 430 2720 1085
C 2720 1707 2208 2157 1600 2227
C 2086 2328 2554 2756 2554 3329
C 2554 3820 2048 4179 1472 4179
C 890 4179 378 3829 378 3329
C 378 3110 544 3072 627 3072
C 762 3072 877 3155 877 3321
C 877 3486 762 3569 627 3569
C 602 3569 570 3569 544 3557
C 730 3959 1235 4032 1459 4032
C 1683 4032 2106 3925 2106 3320
C 2106 3143 2080 2828 1862 2550
C 1670 2304 1453 2304 1242 2284
C 1210 2284 1062 2269 1037 2269
C 992 2263 966 2257 966 2208
C 966 2163 973 2157 1101 2157
L 1414 2157
z
" transform="scale(0.015625)"/>
       </defs>
       <use xlink:href="#CMSY10-0" transform="scale(0.996264)"/>
       <use xlink:href="#CMR17-33" transform="translate(77.487468 0) scale(0.996264)"/>
      </g>
     </g>
    </g>
    <g id="xtick_2">
     <g id="line2d_3">
      <path d="M 83.807786 165.343843
L 83.807786 7.2
" clip-path="url(#p906e38cfcc)" style="fill: none; stroke: #cbcbcb; stroke-width: 0.2; stroke-linecap: square"/>
     </g>
     <g id="line2d_4">
      <g>
       <use xlink:href="#meed1585f76" x="83.807786" y="165.343843" style="stroke: #000000; stroke-width: 0.8"/>
      </g>
     </g>
     <g id="text_2">
      <!-- $\mathdefault{−2}$ -->
      <g transform="translate(77.442747 179.262342) scale(0.1 -0.1)">
       <defs>
        <path id="CMR17-32" d="M 2669 989
L 2554 989
C 2490 536 2438 459 2413 420
C 2381 369 1920 369 1830 369
L 602 369
C 832 619 1280 1072 1824 1597
C 2214 1967 2669 2402 2669 3035
C 2669 3790 2067 4224 1395 4224
C 691 4224 262 3604 262 3030
C 262 2780 448 2748 525 2748
C 589 2748 781 2787 781 3010
C 781 3207 614 3264 525 3264
C 486 3264 448 3258 422 3245
C 544 3790 915 4058 1306 4058
C 1862 4058 2227 3617 2227 3035
C 2227 2479 1901 2000 1536 1584
L 262 146
L 262 0
L 2515 0
L 2669 989
z
" transform="scale(0.015625)"/>
       </defs>
       <use xlink:href="#CMSY10-0" transform="scale(0.996264)"/>
       <use xlink:href="#CMR17-32" transform="translate(77.487468 0) scale(0.996264)"/>
      </g>
     </g>
    </g>
    <g id="xtick_3">
     <g id="line2d_5">
      <path d="M 142.940683 165.343843
L 142.940683 7.2
" clip-path="url(#p906e38cfcc)" style="fill: none; stroke: #cbcbcb; stroke-width: 0.2; stroke-linecap: square"/>
     </g>
     <g id="line2d_6">
      <g>
       <use xlink:href="#meed1585f76" x="142.940683" y="165.343843" style="stroke: #000000; stroke-width: 0.8"/>
      </g>
     </g>
     <g id="text_3">
      <!-- $\mathdefault{−1}$ -->
      <g transform="translate(136.575643 179.262342) scale(0.1 -0.1)">
       <defs>
        <path id="CMR17-31" d="M 1702 4058
C 1702 4192 1696 4192 1606 4192
C 1357 3916 979 3827 621 3827
C 602 3827 570 3827 563 3808
C 557 3795 557 3782 557 3648
C 755 3648 1088 3686 1344 3839
L 1344 461
C 1344 236 1331 160 781 160
L 589 160
L 589 0
C 896 0 1216 0 1523 0
C 1830 0 2150 0 2458 0
L 2458 160
L 2266 160
C 1715 160 1702 230 1702 458
L 1702 4058
z
" transform="scale(0.015625)"/>
       </defs>
       <use xlink:href="#CMSY10-0" transform="scale(0.996264)"/>
       <use xlink:href="#CMR17-31" transform="translate(77.487468 0) scale(0.996264)"/>
      </g>
     </g>
    </g>
    <g id="xtick_4">
     <g id="line2d_7">
      <path d="M 202.073579 165.343843
L 202.073579 7.2
" clip-path="url(#p906e38cfcc)" style="fill: none; stroke: #cbcbcb; stroke-width: 0.2; stroke-linecap: square"/>
     </g>
     <g id="line2d_8">
      <g>
       <use xlink:href="#meed1585f76" x="202.073579" y="165.343843" style="stroke: #000000; stroke-width: 0.8"/>
      </g>
     </g>
     <g id="text_4">
      <!-- $\mathdefault{0}$ -->
      <g transform="translate(199.582912 179.262342) scale(0.1 -0.1)">
       <defs>
        <path id="CMR17-30" d="M 2688 2025
C 2688 2416 2682 3080 2413 3591
C 2176 4039 1798 4198 1466 4198
C 1158 4198 768 4058 525 3597
C 269 3118 243 2524 243 2025
C 243 1661 250 1106 448 619
C 723 -39 1216 -128 1466 -128
C 1760 -128 2208 -7 2470 600
C 2662 1042 2688 1559 2688 2025
z
M 1466 -26
C 1056 -26 813 325 723 812
C 653 1188 653 1738 653 2096
C 653 2588 653 2997 736 3387
C 858 3929 1216 4096 1466 4096
C 1728 4096 2067 3923 2189 3400
C 2272 3036 2278 2607 2278 2096
C 2278 1680 2278 1169 2202 792
C 2067 95 1690 -26 1466 -26
z
" transform="scale(0.015625)"/>
       </defs>
       <use xlink:href="#CMR17-30" transform="scale(0.996264)"/>
      </g>
     </g>
    </g>
    <g id="xtick_5">
     <g id="line2d_9">
      <path d="M 261.206476 165.343843
L 261.206476 7.2
" clip-path="url(#p906e38cfcc)" style="fill: none; stroke: #cbcbcb; stroke-width: 0.2; stroke-linecap: square"/>
     </g>
     <g id="line2d_10">
      <g>
       <use xlink:href="#meed1585f76" x="261.206476" y="165.343843" style="stroke: #000000; stroke-width: 0.8"/>
      </g>
     </g>
     <g id="text_5">
      <!-- $\mathdefault{1}$ -->
      <g transform="translate(258.715808 179.262342) scale(0.1 -0.1)">
       <use xlink:href="#CMR17-31" transform="scale(0.996264)"/>
      </g>
     </g>
    </g>
    <g id="xtick_6">
     <g id="line2d_11">
      <path d="M 320.339373 165.343843
L 320.339373 7.2
" clip-path="url(#p906e38cfcc)" style="fill: none; stroke: #cbcbcb; stroke-width: 0.2; stroke-linecap: square"/>
     </g>
     <g id="line2d_12">
      <g>
       <use xlink:href="#meed1585f76" x="320.339373" y="165.343843" style="stroke: #000000; stroke-width: 0.8"/>
      </g>
     </g>
     <g id="text_6">
      <!-- $\mathdefault{2}$ -->
      <g transform="translate(317.848705 179.262342) scale(0.1 -0.1)">
       <use xlink:href="#CMR17-32" transform="scale(0.996264)"/>
      </g>
     </g>
    </g>
    <g id="xtick_7">
     <g id="line2d_13">
      <path d="M 379.472269 165.343843
L 379.472269 7.2
" clip-path="url(#p906e38cfcc)" style="fill: none; stroke: #cbcbcb; stroke-width: 0.2; stroke-linecap: square"/>
     </g>
     <g id="line2d_14">
      <g>
       <use xlink:href="#meed1585f76" x="379.472269" y="165.343843" style="stroke: #000000; stroke-width: 0.8"/>
      </g>
     </g>
     <g id="text_7">
      <!-- $\mathdefault{3}$ -->
      <g transform="translate(376.981601 179.262342) scale(0.1 -0.1)">
       <use xlink:href="#CMR17-33" transform="scale(0.996264)"/>
      </g>
     </g>
    </g>
   </g>
   <g id="PathCollection_1">
    <defs>
     <path id="mf1d7efcb3c" d="M -5 5
L 5 -5
M -5 -5
L 5 5
" style="stroke: #2f83b4; stroke-width: 1.5"/>
    </defs>
    <g clip-path="url(#p906e38cfcc)">
     <use xlink:href="#mf1d7efcb3c" x="205.030224" y="157.449244" style="fill: #2f83b4; stroke: #2f83b4; stroke-width: 1.5"/>
     <use xlink:href="#mf1d7efcb3c" x="239.918633" y="157.449244" style="fill: #2f83b4; stroke: #2f83b4; stroke-width: 1.5"/>
     <use xlink:href="#mf1d7efcb3c" x="274.807042" y="157.449244" style="fill: #2f83b4; stroke: #2f83b4; stroke-width: 1.5"/>
     <use xlink:href="#mf1d7efcb3c" x="309.695451" y="157.449244" style="fill: #2f83b4; stroke: #2f83b4; stroke-width: 1.5"/>
     <use xlink:href="#mf1d7efcb3c" x="344.58386" y="157.449244" style="fill: #2f83b4; stroke: #2f83b4; stroke-width: 1.5"/>
     <use xlink:href="#mf1d7efcb3c" x="379.472269" y="157.449244" style="fill: #2f83b4; stroke: #2f83b4; stroke-width: 1.5"/>
    </g>
   </g>
   <g id="PathCollection_2">
    <defs>
     <path id="m8bce05f666" d="M 0 5
C 1.326016 5 2.597899 4.473168 3.535534 3.535534
C 4.473168 2.597899 5 1.326016 5 0
C 5 -1.326016 4.473168 -2.597899 3.535534 -3.535534
C 2.597899 -4.473168 1.326016 -5 0 -5
C -1.326016 -5 -2.597899 -4.473168 -3.535534 -3.535534
C -4.473168 -2.597899 -5 -1.326016 -5 0
C -5 1.326016 -4.473168 2.597899 -3.535534 3.535534
C -2.597899 4.473168 -1.326016 5 0 5
z
" style="stroke: #b5121b"/>
    </defs>
    <g clip-path="url(#p906e38cfcc)">
     <use xlink:href="#m8bce05f666" x="24.927251" y="15.044406" style="fill: #b5121b; stroke: #b5121b"/>
     <use xlink:href="#m8bce05f666" x="175.683329" y="15.044406" style="fill: #b5121b; stroke: #b5121b"/>
     <use xlink:href="#m8bce05f666" x="214.314928" y="15.044406" style="fill: #b5121b; stroke: #b5121b"/>
     <use xlink:href="#m8bce05f666" x="237.484519" y="15.044406" style="fill: #b5121b; stroke: #b5121b"/>
     <use xlink:href="#m8bce05f666" x="254.088457" y="15.044406" style="fill: #b5121b; stroke: #b5121b"/>
     <use xlink:href="#m8bce05f666" x="267.037707" y="15.044406" style="fill: #b5121b; stroke: #b5121b"/>
    </g>
   </g>
   <g id="patch_3">
    <path d="M 203.316351 156.38752
Q 118.633994 88.067479 32.672511 21.365179
L 31.599685 22.747765
Q 29.054231 19.506862 26.505949 16.26729
Q 30.279217 17.92591 34.051858 19.587568
L 32.979032 20.970154
Q 118.944259 87.675359 203.630305 155.998376
L 203.316351 156.38752
z
" clip-path="url(#p906e38cfcc)" style="stroke: #000000; stroke-linecap: round"/>
   </g>
   <g id="patch_4">
    <path d="M 238.41983 156.09461
Q 189.334457 98.804508 176.923967 24.970728
L 175.198177 25.260811
Q 175.519578 21.139016 175.953688 17.024789
Q 177.500677 20.861947 179.14284 24.597764
L 177.41705 24.887847
Q 189.804517 98.58466 238.799526 155.769292
L 238.41983 156.09461
z
" clip-path="url(#p906e38cfcc)" style="stroke: #000000; stroke-linecap: round"/>
   </g>
   <g id="patch_5">
    <path d="M 273.813258 155.698738
Q 246.552956 89.746985 218.0809 24.309972
L 216.476217 25.008179
Q 215.797842 20.942659 215.114835 16.876859
Q 217.630939 20.142811 220.144063 23.412277
L 218.53938 24.110484
Q 247.013277 89.551726 274.275341 155.507742
L 273.813258 155.698738
z
" clip-path="url(#p906e38cfcc)" style="stroke: #000000; stroke-linecap: round"/>
   </g>
   <g id="patch_6">
    <path d="M 308.13921 156.167337
Q 255.256367 99.86953 239.173488 24.910579
L 237.462428 25.277697
Q 237.598443 21.143904 237.845008 17.012458
Q 239.564905 20.777185 241.373421 24.438571
L 239.662362 24.805688
Q 255.716054 99.628608 308.503644 155.82501
L 308.13921 156.167337
z
" clip-path="url(#p906e38cfcc)" style="stroke: #000000; stroke-linecap: round"/>
   </g>
   <g id="patch_7">
    <path d="M 343.315324 155.882297
Q 301.933412 89.336729 259.32289 23.571916
L 257.854221 24.5235
Q 256.518727 20.623268 255.179 16.723478
Q 258.196174 19.534152 261.211178 22.348451
L 259.742509 23.300035
Q 302.355557 89.068745 343.739922 155.618258
L 343.315324 155.882297
z
" clip-path="url(#p906e38cfcc)" style="stroke: #000000; stroke-linecap: round"/>
   </g>
   <g id="patch_8">
    <path d="M 377.691758 156.500238
Q 305.410486 105.242085 270.621925 24.38133
L 269.014387 25.072938
Q 268.348579 20.994679 267.778155 16.899289
Q 270.204221 20.247876 272.688759 23.49212
L 271.081221 24.183728
Q 305.814278 104.915472 377.980988 156.092383
L 377.691758 156.500238
z
" clip-path="url(#p906e38cfcc)" style="stroke: #000000; stroke-linecap: round"/>
   </g>
   <g id="patch_9">
    <path d="M 7.2 165.343843
L 397.19952 165.343843
" style="fill: none; stroke: #000000; stroke-width: 0.8; stroke-linejoin: miter; stroke-linecap: square"/>
   </g>
   <g id="legend_1">
    <g id="patch_10">
     <path d="M 290.679492 35.899491
L 391.59952 35.899491
Q 393.19952 35.899491 393.19952 34.299491
L 393.19952 12.8
Q 393.19952 11.2 391.59952 11.2
L 290.679492 11.2
Q 289.079492 11.2 289.079492 12.8
L 289.079492 34.299491
Q 289.079492 35.899491 290.679492 35.899491
z
" style="fill: #ffffff; opacity: 0.8; stroke: #cccccc; stroke-linejoin: miter"/>
    </g>
    <g id="PathCollection_3">
     <g>
      <use xlink:href="#mf1d7efcb3c" x="300.279492" y="17.9" style="fill: #2f83b4; stroke: #2f83b4; stroke-width: 1.5"/>
     </g>
    </g>
    <g id="text_8">
     <!-- Constrained value -->
     <g transform="translate(314.679492 20) scale(0.08 -0.08)">
      <defs>
       <path id="CMR17-43" d="M 3974 4289
C 3974 4403 3968 4410 3930 4410
C 3904 4410 3898 4403 3853 4327
L 3571 3792
C 3258 4187 2874 4416 2381 4416
C 1286 4416 294 3456 294 2148
C 294 826 1286 -128 2387 -128
C 3366 -128 3974 730 3974 1461
C 3974 1524 3974 1550 3917 1550
C 3866 1550 3866 1531 3859 1474
C 3808 585 3168 38 2477 38
C 1824 38 781 495 781 2147
C 781 3805 1843 4250 2464 4250
C 3187 4250 3712 3628 3834 2745
C 3846 2668 3846 2655 3904 2655
C 3974 2655 3974 2668 3974 2783
L 3974 4289
z
" transform="scale(0.015625)"/>
       <path id="CMR17-6f" d="M 2758 1356
C 2758 2176 2163 2816 1466 2816
C 768 2816 173 2176 173 1356
C 173 551 768 -64 1466 -64
C 2163 -64 2758 551 2758 1356
z
M 1466 51
C 1165 51 909 230 762 480
C 602 767 582 1126 582 1408
C 582 1677 595 2010 762 2298
C 890 2509 1139 2714 1466 2714
C 1754 2714 1997 2554 2150 2330
C 2349 2029 2349 1607 2349 1408
C 2349 1158 2336 775 2163 467
C 1984 173 1709 51 1466 51
z
" transform="scale(0.015625)"/>
       <path id="CMR17-6e" d="M 2656 1933
C 2656 2259 2592 2790 1837 2790
C 1331 2790 1069 2400 973 2144
L 966 2144
L 966 2790
L 211 2720
L 211 2554
C 589 2554 646 2515 646 2208
L 646 428
C 646 184 621 153 211 153
L 211 -13
C 365 0 646 0 813 0
C 979 0 1267 0 1421 -13
L 1421 153
C 1011 153 986 178 986 428
L 986 1658
C 986 2247 1344 2688 1792 2688
C 2266 2688 2317 2266 2317 1958
L 2317 428
C 2317 184 2291 153 1882 153
L 1882 -13
C 2035 0 2317 0 2483 0
C 2650 0 2938 0 3091 -13
L 3091 153
C 2682 153 2656 178 2656 428
L 2656 1933
z
" transform="scale(0.015625)"/>
       <path id="CMR17-73" d="M 1978 2697
C 1978 2813 1971 2819 1933 2819
C 1907 2819 1901 2813 1824 2717
C 1805 2691 1747 2626 1728 2601
C 1523 2819 1235 2819 1126 2819
C 416 2819 160 2447 160 2076
C 160 1498 813 1365 998 1325
C 1402 1243 1542 1217 1677 1101
C 1760 1025 1901 884 1901 654
C 1901 384 1747 38 1158 38
C 602 38 403 460 288 1021
C 269 1110 269 1117 218 1117
C 166 1117 160 1110 160 983
L 160 63
C 160 -51 166 -58 205 -58
C 237 -58 243 -51 275 0
C 314 57 410 211 448 276
C 576 103 800 -64 1158 -64
C 1792 -64 2131 283 2131 784
C 2131 1112 1958 1285 1875 1362
C 1683 1561 1459 1606 1190 1657
C 838 1735 390 1825 390 2217
C 390 2383 480 2737 1126 2737
C 1811 2737 1850 2094 1862 1888
C 1869 1856 1901 1849 1920 1849
C 1978 1849 1978 1869 1978 1978
L 1978 2697
z
" transform="scale(0.015625)"/>
       <path id="CMR17-74" d="M 966 2560
L 1862 2560
L 1862 2725
L 966 2725
L 966 3904
L 851 3904
C 838 3245 614 2668 70 2668
L 70 2560
L 627 2560
L 627 771
C 627 650 627 -64 1370 -64
C 1747 -64 1965 306 1965 777
L 1965 1140
L 1850 1140
L 1850 783
C 1850 344 1677 51 1408 51
C 1222 51 966 178 966 758
L 966 2560
z
" transform="scale(0.015625)"/>
       <path id="CMR17-72" d="M 960 1497
C 960 2112 1222 2688 1702 2688
C 1747 2688 1792 2682 1837 2662
C 1837 2662 1696 2617 1696 2452
C 1696 2298 1818 2234 1914 2234
C 1990 2234 2131 2279 2131 2458
C 2131 2663 1926 2790 1709 2790
C 1222 2790 1011 2317 947 2093
L 941 2093
L 941 2790
L 198 2720
L 198 2554
C 576 2554 634 2515 634 2208
L 634 428
C 634 184 608 153 198 153
L 198 -13
C 352 0 646 0 813 0
C 998 0 1325 0 1498 -13
L 1498 153
C 1037 153 960 153 960 440
L 960 1497
z
" transform="scale(0.015625)"/>
       <path id="CMR17-61" d="M 2304 1653
C 2304 2072 2304 2294 2035 2543
C 1798 2752 1523 2816 1306 2816
C 800 2816 435 2407 435 1971
C 435 1728 627 1728 666 1728
C 749 1728 896 1778 896 1954
C 896 2112 774 2181 666 2181
C 640 2181 608 2174 589 2168
C 723 2592 1069 2714 1293 2714
C 1613 2714 1965 2429 1965 1885
L 1965 1600
C 1587 1600 1133 1549 774 1357
C 371 1133 256 813 256 570
C 256 77 832 -64 1171 -64
C 1523 -64 1850 139 1990 511
C 2003 233 2182 -18 2464 -18
C 2598 -18 2938 70 2938 567
L 2938 920
L 2822 920
L 2822 562
C 2822 178 2650 128 2566 128
C 2304 128 2304 458 2304 738
L 2304 1653
z
M 1965 870
C 1965 317 1568 38 1216 38
C 896 38 646 275 646 570
C 646 761 730 1100 1101 1305
C 1408 1478 1760 1504 1965 1504
L 1965 870
z
" transform="scale(0.015625)"/>
       <path id="CMR17-69" d="M 992 3909
C 992 4049 877 4170 730 4170
C 589 4170 467 4056 467 3909
C 467 3769 582 3648 730 3648
C 870 3648 992 3763 992 3909
z
M 243 2706
L 243 2541
C 602 2541 653 2502 653 2197
L 653 427
C 653 184 627 153 218 153
L 218 -13
C 371 0 646 0 806 0
C 960 0 1222 0 1370 -13
L 1370 153
C 992 153 979 191 979 420
L 979 2776
L 243 2706
z
" transform="scale(0.015625)"/>
       <path id="CMR17-65" d="M 2438 1472
C 2464 1498 2464 1511 2464 1576
C 2464 2238 2118 2816 1389 2816
C 710 2816 173 2169 173 1383
C 173 551 781 -64 1459 -64
C 2176 -64 2458 607 2458 740
C 2458 784 2419 784 2406 784
C 2362 784 2355 771 2330 696
C 2189 265 1837 51 1504 51
C 1229 51 954 203 781 480
C 582 803 582 1176 582 1472
L 2438 1472
z
M 589 1568
C 634 2505 1126 2714 1382 2714
C 1818 2714 2112 2297 2118 1568
L 589 1568
z
" transform="scale(0.015625)"/>
       <path id="CMR17-64" d="M 1869 4326
L 1869 4160
C 2246 4160 2304 4122 2304 3820
L 2304 2345
C 2278 2377 2016 2790 1498 2790
C 845 2790 211 2208 211 1364
C 211 525 806 -64 1434 -64
C 1978 -64 2259 337 2291 380
L 2291 -63
L 3066 -63
L 3066 128
C 2688 128 2630 166 2630 473
L 2630 4396
L 1869 4326
z
M 2291 755
C 2291 563 2176 390 2029 262
C 1811 70 1594 38 1472 38
C 1286 38 621 134 621 1356
C 621 2612 1363 2688 1530 2688
C 1824 2688 2061 2522 2208 2291
C 2291 2157 2291 2138 2291 2023
L 2291 755
z
" transform="scale(0.015625)"/>
       <path id="CMR17-76" d="M 2502 2163
C 2560 2304 2662 2560 3034 2560
L 3034 2726
C 2912 2726 2752 2726 2630 2726
C 2496 2726 2285 2726 2157 2732
L 2157 2566
C 2317 2553 2406 2477 2406 2311
C 2406 2253 2406 2240 2368 2151
L 1664 377
L 902 2286
C 864 2369 864 2381 864 2407
C 864 2560 1075 2560 1171 2560
L 1171 2732
C 1018 2726 736 2726 576 2726
C 403 2726 205 2726 64 2732
L 64 2560
C 307 2560 442 2560 518 2362
L 1446 44
C 1485 -51 1491 -64 1549 -64
C 1606 -64 1613 -51 1651 44
L 2502 2163
z
" transform="scale(0.015625)"/>
       <path id="CMR17-6c" d="M 979 4396
L 218 4326
L 218 4160
C 595 4160 653 4122 653 3817
L 653 426
C 653 184 627 153 218 153
L 218 -13
C 371 0 653 0 813 0
C 979 0 1261 0 1414 -13
L 1414 153
C 1005 153 979 178 979 426
L 979 4396
z
" transform="scale(0.015625)"/>
       <path id="CMR17-75" d="M 1882 2693
L 1882 2528
C 2259 2528 2317 2489 2317 2186
L 2317 1032
C 2317 500 2029 38 1555 38
C 1030 38 986 348 986 678
L 986 2763
L 211 2693
L 211 2528
C 467 2528 640 2528 646 2274
L 646 1058
C 646 633 646 361 813 183
C 896 101 1056 -64 1517 -64
C 2061 -64 2272 377 2323 506
L 2330 506
L 2330 -63
L 3091 -63
L 3091 128
C 2714 128 2656 166 2656 473
L 2656 2763
L 1882 2693
z
" transform="scale(0.015625)"/>
      </defs>
      <use xlink:href="#CMR17-43" transform="scale(0.996264)"/>
      <use xlink:href="#CMR17-6f" transform="translate(66.509881 0) scale(0.996264)"/>
      <use xlink:href="#CMR17-6e" transform="translate(112.200358 0) scale(0.996264)"/>
      <use xlink:href="#CMR17-73" transform="translate(163.095727 0) scale(0.996264)"/>
      <use xlink:href="#CMR17-74" transform="translate(198.897065 0) scale(0.996264)"/>
      <use xlink:href="#CMR17-72" transform="translate(234.177833 0) scale(0.996264)"/>
      <use xlink:href="#CMR17-61" transform="translate(269.458601 0) scale(0.996264)"/>
      <use xlink:href="#CMR17-69" transform="translate(315.149078 0) scale(0.996264)"/>
      <use xlink:href="#CMR17-6e" transform="translate(340.020136 0) scale(0.996264)"/>
      <use xlink:href="#CMR17-65" transform="translate(390.915506 0) scale(0.996264)"/>
      <use xlink:href="#CMR17-64" transform="translate(431.401167 0) scale(0.996264)"/>
      <use xlink:href="#CMR17-76" transform="translate(512.372503 0) scale(0.996264)"/>
      <use xlink:href="#CMR17-61" transform="translate(555.460602 0) scale(0.996264)"/>
      <use xlink:href="#CMR17-6c" transform="translate(601.151079 0) scale(0.996264)"/>
      <use xlink:href="#CMR17-75" transform="translate(626.022137 0) scale(0.996264)"/>
      <use xlink:href="#CMR17-65" transform="translate(676.917507 0) scale(0.996264)"/>
     </g>
    </g>
    <g id="PathCollection_4">
     <g>
      <use xlink:href="#m8bce05f666" x="300.279492" y="29.049746" style="fill: #b5121b; stroke: #b5121b"/>
     </g>
    </g>
    <g id="text_9">
     <!-- Unconstrained value -->
     <g transform="translate(314.679492 31.149746) scale(0.08 -0.08)">
      <defs>
       <path id="CMR17-55" d="M 3456 1433
C 3456 579 2899 38 2291 38
C 1965 38 1670 210 1491 477
C 1286 783 1261 1178 1261 1401
L 1261 3874
C 1261 4160 1331 4160 1773 4160
L 1773 4320
C 1587 4320 1248 4320 1050 4320
C 851 4320 512 4320 326 4320
L 326 4160
C 768 4160 838 4160 838 3874
L 838 1433
C 838 516 1536 -128 2278 -128
C 3110 -128 3590 719 3590 1344
L 3590 3766
C 3590 4122 3917 4160 4102 4160
L 4102 4326
C 3955 4320 3686 4320 3526 4320
C 3366 4320 3091 4320 2944 4326
L 2944 4160
C 3456 4160 3456 3861 3456 3702
L 3456 1433
z
" transform="scale(0.015625)"/>
       <path id="CMR17-63" d="M 2234 2240
C 2112 2240 1933 2240 1933 2017
C 1933 1838 2080 1787 2163 1787
C 2208 1787 2394 1807 2394 2024
C 2394 2467 1958 2803 1466 2803
C 787 2803 211 2178 211 1363
C 211 516 813 -64 1466 -64
C 2259 -64 2458 677 2458 748
C 2458 774 2451 793 2406 793
C 2362 793 2355 787 2330 703
C 2163 180 1798 51 1523 51
C 1114 51 621 427 621 1369
C 621 2338 1094 2688 1472 2688
C 1722 2688 2093 2573 2234 2240
z
" transform="scale(0.015625)"/>
      </defs>
      <use xlink:href="#CMR17-55" transform="scale(0.996264)"/>
      <use xlink:href="#CMR17-6e" transform="translate(69.07243 0) scale(0.996264)"/>
      <use xlink:href="#CMR17-63" transform="translate(119.9678 0) scale(0.996264)"/>
      <use xlink:href="#CMR17-6f" transform="translate(160.45346 0) scale(0.996264)"/>
      <use xlink:href="#CMR17-6e" transform="translate(206.143937 0) scale(0.996264)"/>
      <use xlink:href="#CMR17-73" transform="translate(257.039307 0) scale(0.996264)"/>
      <use xlink:href="#CMR17-74" transform="translate(292.840645 0) scale(0.996264)"/>
      <use xlink:href="#CMR17-72" transform="translate(328.121412 0) scale(0.996264)"/>
      <use xlink:href="#CMR17-61" transform="translate(363.40218 0) scale(0.996264)"/>
      <use xlink:href="#CMR17-69" transform="translate(409.092657 0) scale(0.996264)"/>
      <use xlink:href="#CMR17-6e" transform="translate(433.963716 0) scale(0.996264)"/>
      <use xlink:href="#CMR17-65" transform="translate(484.859086 0) scale(0.996264)"/>
      <use xlink:href="#CMR17-64" transform="translate(525.344746 0) scale(0.996264)"/>
      <use xlink:href="#CMR17-76" transform="translate(606.316082 0) scale(0.996264)"/>
      <use xlink:href="#CMR17-61" transform="translate(649.404181 0) scale(0.996264)"/>
      <use xlink:href="#CMR17-6c" transform="translate(695.094658 0) scale(0.996264)"/>
      <use xlink:href="#CMR17-75" transform="translate(719.965717 0) scale(0.996264)"/>
      <use xlink:href="#CMR17-65" transform="translate(770.861087 0) scale(0.996264)"/>
     </g>
    </g>
   </g>
  </g>
 </g>
 <defs>
  <clipPath id="p906e38cfcc">
   <rect x="7.2" y="7.2" width="389.99952" height="158.143843"/>
  </clipPath>
 </defs>
</svg>
